<svg xmlns="http://www.w3.org/2000/svg" xmlns:xlink="http://www.w3.org/1999/xlink" version="1.1" class="marks" width="384" height="525" viewBox="0 0 384 525"><rect width="384" height="525" fill="white"/><g fill="none" stroke-miterlimit="10" transform="translate(78,27)"><g class="mark-group role-frame root" role="graphics-object" aria-roledescription="group mark container"><g transform="translate(0,0)"><path class="background" aria-hidden="true" d="M0,0h0v0h0Z"/><g><g class="mark-group role-row-header row_header" role="graphics-object" aria-roledescription="group mark container"><g transform="translate(-1,0)"><path class="background" aria-hidden="true" d="M0,0h0v40h0Z"/><g><g class="mark-group role-axis" role="graphics-symbol" aria-roledescription="axis" aria-label="Y-axis for a linear scale with values from 0 to 10"><g transform="translate(0.5,0.5)"><path class="background" aria-hidden="true" d="M0,0h0v0h0Z" pointer-events="none"/><g><g class="mark-rule role-axis-tick" pointer-events="none"><line transform="translate(0,40)" x2="-5" y2="0" stroke="#888" stroke-width="1" opacity="1"/><line transform="translate(0,0)" x2="-5" y2="0" stroke="#888" stroke-width="1" opacity="1"/></g><g class="mark-text role-axis-label" pointer-events="none"><text text-anchor="end" transform="translate(-7,43)" font-family="sans-serif" font-size="10px" fill="#000" opacity="1">0</text><text text-anchor="end" transform="translate(-7,3)" font-family="sans-serif" font-size="10px" fill="#000" opacity="1">10</text></g><g class="mark-rule role-axis-domain" pointer-events="none"><line transform="translate(0,40)" x2="0" y2="-40" stroke="#888" stroke-width="1" opacity="1"/></g></g><path class="foreground" aria-hidden="true" d="" pointer-events="none" display="none"/></g></g><g class="mark-group role-title"><g transform="translate(-50.3447265625,20)"><path class="background" aria-hidden="true" d="M0,0h0v0h0Z" pointer-events="none"/><g><g class="mark-text role-title-text" role="graphics-symbol" aria-roledescription="title" aria-label="Title text '3mm'" pointer-events="none"><text text-anchor="start" transform="translate(0,3)" font-family="sans-serif" font-size="10px" fill="#000" opacity="1">3mm</text></g></g><path class="foreground" aria-hidden="true" d="" pointer-events="none" display="none"/></g></g></g><path class="foreground" aria-hidden="true" d="" display="none"/></g><g transform="translate(-1,42)"><path class="background" aria-hidden="true" d="M0,0h0v40h0Z"/><g><g class="mark-group role-axis" role="graphics-symbol" aria-roledescription="axis" aria-label="Y-axis for a linear scale with values from 0 to 10"><g transform="translate(0.5,0.5)"><path class="background" aria-hidden="true" d="M0,0h0v0h0Z" pointer-events="none"/><g><g class="mark-rule role-axis-tick" pointer-events="none"><line transform="translate(0,40)" x2="-5" y2="0" stroke="#888" stroke-width="1" opacity="1"/><line transform="translate(0,0)" x2="-5" y2="0" stroke="#888" stroke-width="1" opacity="1"/></g><g class="mark-text role-axis-label" pointer-events="none"><text text-anchor="end" transform="translate(-7,43)" font-family="sans-serif" font-size="10px" fill="#000" opacity="1">0</text><text text-anchor="end" transform="translate(-7,3)" font-family="sans-serif" font-size="10px" fill="#000" opacity="1">10</text></g><g class="mark-rule role-axis-domain" pointer-events="none"><line transform="translate(0,40)" x2="0" y2="-40" stroke="#888" stroke-width="1" opacity="1"/></g></g><path class="foreground" aria-hidden="true" d="" pointer-events="none" display="none"/></g></g><g class="mark-group role-title"><g transform="translate(-46.4677734375,20)"><path class="background" aria-hidden="true" d="M0,0h0v0h0Z" pointer-events="none"/><g><g class="mark-text role-title-text" role="graphics-symbol" aria-roledescription="title" aria-label="Title text 'bicg'" pointer-events="none"><text text-anchor="start" transform="translate(0,3)" font-family="sans-serif" font-size="10px" fill="#000" opacity="1">bicg</text></g></g><path class="foreground" aria-hidden="true" d="" pointer-events="none" display="none"/></g></g></g><path class="foreground" aria-hidden="true" d="" display="none"/></g><g transform="translate(-1,84)"><path class="background" aria-hidden="true" d="M0,0h0v40h0Z"/><g><g class="mark-group role-axis" role="graphics-symbol" aria-roledescription="axis" aria-label="Y-axis for a linear scale with values from 0 to 10"><g transform="translate(0.5,0.5)"><path class="background" aria-hidden="true" d="M0,0h0v0h0Z" pointer-events="none"/><g><g class="mark-rule role-axis-tick" pointer-events="none"><line transform="translate(0,40)" x2="-5" y2="0" stroke="#888" stroke-width="1" opacity="1"/><line transform="translate(0,0)" x2="-5" y2="0" stroke="#888" stroke-width="1" opacity="1"/></g><g class="mark-text role-axis-label" pointer-events="none"><text text-anchor="end" transform="translate(-7,43)" font-family="sans-serif" font-size="10px" fill="#000" opacity="1">0</text><text text-anchor="end" transform="translate(-7,3)" font-family="sans-serif" font-size="10px" fill="#000" opacity="1">10</text></g><g class="mark-rule role-axis-domain" pointer-events="none"><line transform="translate(0,40)" x2="0" y2="-40" stroke="#888" stroke-width="1" opacity="1"/></g></g><path class="foreground" aria-hidden="true" d="" pointer-events="none" display="none"/></g></g><g class="mark-group role-title"><g transform="translate(-55.90625,20)"><path class="background" aria-hidden="true" d="M0,0h0v0h0Z" pointer-events="none"/><g><g class="mark-text role-title-text" role="graphics-symbol" aria-roledescription="title" aria-label="Title text 'gemm'" pointer-events="none"><text text-anchor="start" transform="translate(0,3)" font-family="sans-serif" font-size="10px" fill="#000" opacity="1">gemm</text></g></g><path class="foreground" aria-hidden="true" d="" pointer-events="none" display="none"/></g></g></g><path class="foreground" aria-hidden="true" d="" display="none"/></g><g transform="translate(-1,126)"><path class="background" aria-hidden="true" d="M0,0h0v40h0Z"/><g><g class="mark-group role-axis" role="graphics-symbol" aria-roledescription="axis" aria-label="Y-axis for a linear scale with values from 0 to 10"><g transform="translate(0.5,0.5)"><path class="background" aria-hidden="true" d="M0,0h0v0h0Z" pointer-events="none"/><g><g class="mark-rule role-axis-tick" pointer-events="none"><line transform="translate(0,40)" x2="-5" y2="0" stroke="#888" stroke-width="1" opacity="1"/><line transform="translate(0,0)" x2="-5" y2="0" stroke="#888" stroke-width="1" opacity="1"/></g><g class="mark-text role-axis-label" pointer-events="none"><text text-anchor="end" transform="translate(-7,43)" font-family="sans-serif" font-size="10px" fill="#000" opacity="1">0</text><text text-anchor="end" transform="translate(-7,3)" font-family="sans-serif" font-size="10px" fill="#000" opacity="1">10</text></g><g class="mark-rule role-axis-domain" pointer-events="none"><line transform="translate(0,40)" x2="0" y2="-40" stroke="#888" stroke-width="1" opacity="1"/></g></g><path class="foreground" aria-hidden="true" d="" pointer-events="none" display="none"/></g></g><g class="mark-group role-title"><g transform="translate(-71.4677734375,20)"><path class="background" aria-hidden="true" d="M0,0h0v0h0Z" pointer-events="none"/><g><g class="mark-text role-title-text" role="graphics-symbol" aria-roledescription="title" aria-label="Title text 'gesummv'" pointer-events="none"><text text-anchor="start" transform="translate(0,3)" font-family="sans-serif" font-size="10px" fill="#000" opacity="1">gesummv</text></g></g><path class="foreground" aria-hidden="true" d="" pointer-events="none" display="none"/></g></g></g><path class="foreground" aria-hidden="true" d="" display="none"/></g><g transform="translate(-1,168)"><path class="background" aria-hidden="true" d="M0,0h0v40h0Z"/><g><g class="mark-group role-axis" role="graphics-symbol" aria-roledescription="axis" aria-label="Y-axis for a linear scale with values from 0 to 10"><g transform="translate(0.5,0.5)"><path class="background" aria-hidden="true" d="M0,0h0v0h0Z" pointer-events="none"/><g><g class="mark-rule role-axis-tick" pointer-events="none"><line transform="translate(0,40)" x2="-5" y2="0" stroke="#888" stroke-width="1" opacity="1"/><line transform="translate(0,0)" x2="-5" y2="0" stroke="#888" stroke-width="1" opacity="1"/></g><g class="mark-text role-axis-label" pointer-events="none"><text text-anchor="end" transform="translate(-7,43)" font-family="sans-serif" font-size="10px" fill="#000" opacity="1">0</text><text text-anchor="end" transform="translate(-7,3)" font-family="sans-serif" font-size="10px" fill="#000" opacity="1">10</text></g><g class="mark-rule role-axis-domain" pointer-events="none"><line transform="translate(0,40)" x2="0" y2="-40" stroke="#888" stroke-width="1" opacity="1"/></g></g><path class="foreground" aria-hidden="true" d="" pointer-events="none" display="none"/></g></g><g class="mark-group role-title"><g transform="translate(-62.0390625,20)"><path class="background" aria-hidden="true" d="M0,0h0v0h0Z" pointer-events="none"/><g><g class="mark-text role-title-text" role="graphics-symbol" aria-roledescription="title" aria-label="Title text 'heat-3d'" pointer-events="none"><text text-anchor="start" transform="translate(0,3)" font-family="sans-serif" font-size="10px" fill="#000" opacity="1">heat-3d</text></g></g><path class="foreground" aria-hidden="true" d="" pointer-events="none" display="none"/></g></g></g><path class="foreground" aria-hidden="true" d="" display="none"/></g><g transform="translate(-1,210)"><path class="background" aria-hidden="true" d="M0,0h0v40h0Z"/><g><g class="mark-group role-axis" role="graphics-symbol" aria-roledescription="axis" aria-label="Y-axis for a linear scale with values from 0 to 10"><g transform="translate(0.5,0.5)"><path class="background" aria-hidden="true" d="M0,0h0v0h0Z" pointer-events="none"/><g><g class="mark-rule role-axis-tick" pointer-events="none"><line transform="translate(0,40)" x2="-5" y2="0" stroke="#888" stroke-width="1" opacity="1"/><line transform="translate(0,0)" x2="-5" y2="0" stroke="#888" stroke-width="1" opacity="1"/></g><g class="mark-text role-axis-label" pointer-events="none"><text text-anchor="end" transform="translate(-7,43)" font-family="sans-serif" font-size="10px" fill="#000" opacity="1">0</text><text text-anchor="end" transform="translate(-7,3)" font-family="sans-serif" font-size="10px" fill="#000" opacity="1">10</text></g><g class="mark-rule role-axis-domain" pointer-events="none"><line transform="translate(0,40)" x2="0" y2="-40" stroke="#888" stroke-width="1" opacity="1"/></g></g><path class="foreground" aria-hidden="true" d="" pointer-events="none" display="none"/></g></g><g class="mark-group role-title"><g transform="translate(-68.7041015625,20)"><path class="background" aria-hidden="true" d="M0,0h0v0h0Z" pointer-events="none"/><g><g class="mark-text role-title-text" role="graphics-symbol" aria-roledescription="title" aria-label="Title text 'jacobi-1d'" pointer-events="none"><text text-anchor="start" transform="translate(0,3)" font-family="sans-serif" font-size="10px" fill="#000" opacity="1">jacobi-1d</text></g></g><path class="foreground" aria-hidden="true" d="" pointer-events="none" display="none"/></g></g></g><path class="foreground" aria-hidden="true" d="" display="none"/></g><g transform="translate(-1,252)"><path class="background" aria-hidden="true" d="M0,0h0v40h0Z"/><g><g class="mark-group role-axis" role="graphics-symbol" aria-roledescription="axis" aria-label="Y-axis for a linear scale with values from 0 to 10"><g transform="translate(0.5,0.5)"><path class="background" aria-hidden="true" d="M0,0h0v0h0Z" pointer-events="none"/><g><g class="mark-rule role-axis-tick" pointer-events="none"><line transform="translate(0,40)" x2="-5" y2="0" stroke="#888" stroke-width="1" opacity="1"/><line transform="translate(0,0)" x2="-5" y2="0" stroke="#888" stroke-width="1" opacity="1"/></g><g class="mark-text role-axis-label" pointer-events="none"><text text-anchor="end" transform="translate(-7,43)" font-family="sans-serif" font-size="10px" fill="#000" opacity="1">0</text><text text-anchor="end" transform="translate(-7,3)" font-family="sans-serif" font-size="10px" fill="#000" opacity="1">10</text></g><g class="mark-rule role-axis-domain" pointer-events="none"><line transform="translate(0,40)" x2="0" y2="-40" stroke="#888" stroke-width="1" opacity="1"/></g></g><path class="foreground" aria-hidden="true" d="" pointer-events="none" display="none"/></g></g><g class="mark-group role-title"><g transform="translate(-68.7041015625,20)"><path class="background" aria-hidden="true" d="M0,0h0v0h0Z" pointer-events="none"/><g><g class="mark-text role-title-text" role="graphics-symbol" aria-roledescription="title" aria-label="Title text 'jacobi-2d'" pointer-events="none"><text text-anchor="start" transform="translate(0,3)" font-family="sans-serif" font-size="10px" fill="#000" opacity="1">jacobi-2d</text></g></g><path class="foreground" aria-hidden="true" d="" pointer-events="none" display="none"/></g></g></g><path class="foreground" aria-hidden="true" d="" display="none"/></g><g transform="translate(-1,294)"><path class="background" aria-hidden="true" d="M0,0h0v40h0Z"/><g><g class="mark-group role-axis" role="graphics-symbol" aria-roledescription="axis" aria-label="Y-axis for a linear scale with values from 0 to 10"><g transform="translate(0.5,0.5)"><path class="background" aria-hidden="true" d="M0,0h0v0h0Z" pointer-events="none"/><g><g class="mark-rule role-axis-tick" pointer-events="none"><line transform="translate(0,40)" x2="-5" y2="0" stroke="#888" stroke-width="1" opacity="1"/><line transform="translate(0,0)" x2="-5" y2="0" stroke="#888" stroke-width="1" opacity="1"/></g><g class="mark-text role-axis-label" pointer-events="none"><text text-anchor="end" transform="translate(-7,43)" font-family="sans-serif" font-size="10px" fill="#000" opacity="1">0</text><text text-anchor="end" transform="translate(-7,3)" font-family="sans-serif" font-size="10px" fill="#000" opacity="1">10</text></g><g class="mark-rule role-axis-domain" pointer-events="none"><line transform="translate(0,40)" x2="0" y2="-40" stroke="#888" stroke-width="1" opacity="1"/></g></g><path class="foreground" aria-hidden="true" d="" pointer-events="none" display="none"/></g></g><g class="mark-group role-title"><g transform="translate(-35.90625,20)"><path class="background" aria-hidden="true" d="M0,0h0v0h0Z" pointer-events="none"/><g><g class="mark-text role-title-text" role="graphics-symbol" aria-roledescription="title" aria-label="Title text 'lu'" pointer-events="none"><text text-anchor="start" transform="translate(0,3)" font-family="sans-serif" font-size="10px" fill="#000" opacity="1">lu</text></g></g><path class="foreground" aria-hidden="true" d="" pointer-events="none" display="none"/></g></g></g><path class="foreground" aria-hidden="true" d="" display="none"/></g><g transform="translate(-1,336)"><path class="background" aria-hidden="true" d="M0,0h0v40h0Z"/><g><g class="mark-group role-axis" role="graphics-symbol" aria-roledescription="axis" aria-label="Y-axis for a linear scale with values from 0 to 10"><g transform="translate(0.5,0.5)"><path class="background" aria-hidden="true" d="M0,0h0v0h0Z" pointer-events="none"/><g><g class="mark-rule role-axis-tick" pointer-events="none"><line transform="translate(0,40)" x2="-5" y2="0" stroke="#888" stroke-width="1" opacity="1"/><line transform="translate(0,0)" x2="-5" y2="0" stroke="#888" stroke-width="1" opacity="1"/></g><g class="mark-text role-axis-label" pointer-events="none"><text text-anchor="end" transform="translate(-7,43)" font-family="sans-serif" font-size="10px" fill="#000" opacity="1">0</text><text text-anchor="end" transform="translate(-7,3)" font-family="sans-serif" font-size="10px" fill="#000" opacity="1">10</text></g><g class="mark-rule role-axis-domain" pointer-events="none"><line transform="translate(0,40)" x2="0" y2="-40" stroke="#888" stroke-width="1" opacity="1"/></g></g><path class="foreground" aria-hidden="true" d="" pointer-events="none" display="none"/></g></g><g class="mark-group role-title"><g transform="translate(-68.7041015625,20)"><path class="background" aria-hidden="true" d="M0,0h0v0h0Z" pointer-events="none"/><g><g class="mark-text role-title-text" role="graphics-symbol" aria-roledescription="title" aria-label="Title text 'seidel-2d'" pointer-events="none"><text text-anchor="start" transform="translate(0,3)" font-family="sans-serif" font-size="10px" fill="#000" opacity="1">seidel-2d</text></g></g><path class="foreground" aria-hidden="true" d="" pointer-events="none" display="none"/></g></g></g><path class="foreground" aria-hidden="true" d="" display="none"/></g><g transform="translate(-1,378)"><path class="background" aria-hidden="true" d="M0,0h0v40h0Z"/><g><g class="mark-group role-axis" role="graphics-symbol" aria-roledescription="axis" aria-label="Y-axis for a linear scale with values from 0 to 10"><g transform="translate(0.5,0.5)"><path class="background" aria-hidden="true" d="M0,0h0v0h0Z" pointer-events="none"/><g><g class="mark-rule role-axis-tick" pointer-events="none"><line transform="translate(0,40)" x2="-5" y2="0" stroke="#888" stroke-width="1" opacity="1"/><line transform="translate(0,0)" x2="-5" y2="0" stroke="#888" stroke-width="1" opacity="1"/></g><g class="mark-text role-axis-label" pointer-events="none"><text text-anchor="end" transform="translate(-7,43)" font-family="sans-serif" font-size="10px" fill="#000" opacity="1">0</text><text text-anchor="end" transform="translate(-7,3)" font-family="sans-serif" font-size="10px" fill="#000" opacity="1">10</text></g><g class="mark-rule role-axis-domain" pointer-events="none"><line transform="translate(0,40)" x2="0" y2="-40" stroke="#888" stroke-width="1" opacity="1"/></g></g><path class="foreground" aria-hidden="true" d="" pointer-events="none" display="none"/></g></g><g class="mark-group role-title"><g transform="translate(-54.783203125,20)"><path class="background" aria-hidden="true" d="M0,0h0v0h0Z" pointer-events="none"/><g><g class="mark-text role-title-text" role="graphics-symbol" aria-roledescription="title" aria-label="Title text 'symm'" pointer-events="none"><text text-anchor="start" transform="translate(0,3)" font-family="sans-serif" font-size="10px" fill="#000" opacity="1">symm</text></g></g><path class="foreground" aria-hidden="true" d="" pointer-events="none" display="none"/></g></g></g><path class="foreground" aria-hidden="true" d="" display="none"/></g><g transform="translate(-1,420)"><path class="background" aria-hidden="true" d="M0,0h0v40h0Z"/><g><g class="mark-group role-axis" role="graphics-symbol" aria-roledescription="axis" aria-label="Y-axis for a linear scale with values from 0 to 10"><g transform="translate(0.5,0.5)"><path class="background" aria-hidden="true" d="M0,0h0v0h0Z" pointer-events="none"/><g><g class="mark-rule role-axis-tick" pointer-events="none"><line transform="translate(0,40)" x2="-5" y2="0" stroke="#888" stroke-width="1" opacity="1"/><line transform="translate(0,0)" x2="-5" y2="0" stroke="#888" stroke-width="1" opacity="1"/></g><g class="mark-text role-axis-label" pointer-events="none"><text text-anchor="end" transform="translate(-7,43)" font-family="sans-serif" font-size="10px" fill="#000" opacity="1">0</text><text text-anchor="end" transform="translate(-7,3)" font-family="sans-serif" font-size="10px" fill="#000" opacity="1">10</text></g><g class="mark-rule role-axis-domain" pointer-events="none"><line transform="translate(0,40)" x2="0" y2="-40" stroke="#888" stroke-width="1" opacity="1"/></g></g><path class="foreground" aria-hidden="true" d="" pointer-events="none" display="none"/></g></g><g class="mark-group role-title"><g transform="translate(-50.8916015625,20)"><path class="background" aria-hidden="true" d="M0,0h0v0h0Z" pointer-events="none"/><g><g class="mark-text role-title-text" role="graphics-symbol" aria-roledescription="title" aria-label="Title text 'trmm'" pointer-events="none"><text text-anchor="start" transform="translate(0,3)" font-family="sans-serif" font-size="10px" fill="#000" opacity="1">trmm</text></g></g><path class="foreground" aria-hidden="true" d="" pointer-events="none" display="none"/></g></g></g><path class="foreground" aria-hidden="true" d="" display="none"/></g></g><g class="mark-group role-column-footer column_footer" role="graphics-object" aria-roledescription="group mark container"><g transform="translate(0,461)"><path class="background" aria-hidden="true" d="M0,0h300v0h-300Z"/><g><g class="mark-group role-axis" role="graphics-symbol" aria-roledescription="axis" aria-label="X-axis titled 'percent of pareto confs identified' for a linear scale with values from 0.0 to 1.0"><g transform="translate(0.5,0.5)"><path class="background" aria-hidden="true" d="M0,0h0v0h0Z" pointer-events="none"/><g><g class="mark-rule role-axis-tick" pointer-events="none"><line transform="translate(0,0)" x2="0" y2="5" stroke="#888" stroke-width="1" opacity="1"/><line transform="translate(30,0)" x2="0" y2="5" stroke="#888" stroke-width="1" opacity="1"/><line transform="translate(60,0)" x2="0" y2="5" stroke="#888" stroke-width="1" opacity="1"/><line transform="translate(90,0)" x2="0" y2="5" stroke="#888" stroke-width="1" opacity="1"/><line transform="translate(120,0)" x2="0" y2="5" stroke="#888" stroke-width="1" opacity="1"/><line transform="translate(150,0)" x2="0" y2="5" stroke="#888" stroke-width="1" opacity="1"/><line transform="translate(180,0)" x2="0" y2="5" stroke="#888" stroke-width="1" opacity="1"/><line transform="translate(210,0)" x2="0" y2="5" stroke="#888" stroke-width="1" opacity="1"/><line transform="translate(240,0)" x2="0" y2="5" stroke="#888" stroke-width="1" opacity="1"/><line transform="translate(270,0)" x2="0" y2="5" stroke="#888" stroke-width="1" opacity="1"/><line transform="translate(300,0)" x2="0" y2="5" stroke="#888" stroke-width="1" opacity="1"/></g><g class="mark-text role-axis-label" pointer-events="none"><text text-anchor="start" transform="translate(0,15)" font-family="sans-serif" font-size="10px" fill="#000" opacity="1">0.0</text><text text-anchor="middle" transform="translate(30,15)" font-family="sans-serif" font-size="10px" fill="#000" opacity="1">0.1</text><text text-anchor="middle" transform="translate(60,15)" font-family="sans-serif" font-size="10px" fill="#000" opacity="1">0.2</text><text text-anchor="middle" transform="translate(90,15)" font-family="sans-serif" font-size="10px" fill="#000" opacity="1">0.3</text><text text-anchor="middle" transform="translate(120,15)" font-family="sans-serif" font-size="10px" fill="#000" opacity="1">0.4</text><text text-anchor="middle" transform="translate(150,15)" font-family="sans-serif" font-size="10px" fill="#000" opacity="1">0.5</text><text text-anchor="middle" transform="translate(180,15)" font-family="sans-serif" font-size="10px" fill="#000" opacity="1">0.6</text><text text-anchor="middle" transform="translate(210,15)" font-family="sans-serif" font-size="10px" fill="#000" opacity="1">0.7</text><text text-anchor="middle" transform="translate(240,15)" font-family="sans-serif" font-size="10px" fill="#000" opacity="1">0.8</text><text text-anchor="middle" transform="translate(270,15)" font-family="sans-serif" font-size="10px" fill="#000" opacity="1">0.9</text><text text-anchor="end" transform="translate(300,15)" font-family="sans-serif" font-size="10px" fill="#000" opacity="1">1.0</text></g><g class="mark-rule role-axis-domain" pointer-events="none"><line transform="translate(0,0)" x2="300" y2="0" stroke="#888" stroke-width="1" opacity="1"/></g><g class="mark-text role-axis-title" pointer-events="none"><text text-anchor="middle" transform="translate(150,30)" font-family="sans-serif" font-size="11px" font-weight="bold" fill="#000" opacity="1">percent of pareto confs identified</text></g></g><path class="foreground" aria-hidden="true" d="" pointer-events="none" display="none"/></g></g></g><path class="foreground" aria-hidden="true" d="" display="none"/></g></g><g class="mark-group role-scope cell" role="graphics-object" aria-roledescription="group mark container"><g transform="translate(0,0)"><path class="background" aria-hidden="true" d="M0.5,0.5h300v40h-300Z" stroke="#ddd"/><g><g class="mark-group role-axis" aria-hidden="true"><g transform="translate(0.5,40.5)"><path class="background" aria-hidden="true" d="M0,0h0v0h0Z" pointer-events="none"/><g><g class="mark-rule role-axis-grid" pointer-events="none"><line transform="translate(0,-40)" x2="0" y2="40" stroke="#ddd" stroke-width="1" opacity="1"/><line transform="translate(30,-40)" x2="0" y2="40" stroke="#ddd" stroke-width="1" opacity="1"/><line transform="translate(60,-40)" x2="0" y2="40" stroke="#ddd" stroke-width="1" opacity="1"/><line transform="translate(90,-40)" x2="0" y2="40" stroke="#ddd" stroke-width="1" opacity="1"/><line transform="translate(120,-40)" x2="0" y2="40" stroke="#ddd" stroke-width="1" opacity="1"/><line transform="translate(150,-40)" x2="0" y2="40" stroke="#ddd" stroke-width="1" opacity="1"/><line transform="translate(180,-40)" x2="0" y2="40" stroke="#ddd" stroke-width="1" opacity="1"/><line transform="translate(210,-40)" x2="0" y2="40" stroke="#ddd" stroke-width="1" opacity="1"/><line transform="translate(240,-40)" x2="0" y2="40" stroke="#ddd" stroke-width="1" opacity="1"/><line transform="translate(270,-40)" x2="0" y2="40" stroke="#ddd" stroke-width="1" opacity="1"/><line transform="translate(300,-40)" x2="0" y2="40" stroke="#ddd" stroke-width="1" opacity="1"/></g></g><path class="foreground" aria-hidden="true" d="" pointer-events="none" display="none"/></g></g><g class="mark-group role-axis" aria-hidden="true"><g transform="translate(0.5,0.5)"><path class="background" aria-hidden="true" d="M0,0h0v0h0Z" pointer-events="none"/><g><g class="mark-rule role-axis-grid" pointer-events="none"><line transform="translate(0,40)" x2="300" y2="0" stroke="#ddd" stroke-width="1" opacity="1"/><line transform="translate(0,0)" x2="300" y2="0" stroke="#ddd" stroke-width="1" opacity="1"/></g></g><path class="foreground" aria-hidden="true" d="" pointer-events="none" display="none"/></g></g><g class="mark-area role-mark child_marks" role="graphics-object" aria-roledescription="area mark container"><path aria-label="percent of pareto confs identified: 0; density: 0.295532929029" role="graphics-symbol" aria-roledescription="area mark" d="M0,38.818L1.5,38.818L3,38.819L4.5,38.823L6,38.828L7.5,38.835L9,38.843L10.5,38.853L12,38.865L13.5,38.878L15,38.892L16.5,38.908L18,38.925L19.5,38.943L21,38.961L22.5,38.981L24,39.001L25.5,39.022L27,39.044L28.5,39.065L30,39.088L31.5,39.11L33,39.132L34.5,39.154L36,39.176L37.5,39.197L39,39.218L40.5,39.239L42,39.259L43.5,39.278L45,39.296L46.5,39.314L48,39.33L49.5,39.346L51,39.36L52.5,39.373L54,39.385L55.5,39.396L57,39.406L58.5,39.415L60,39.422L61.5,39.428L63,39.433L64.5,39.436L66,39.438L67.5,39.439L69,39.439L70.5,39.438L72,39.435L73.5,39.432L75,39.427L76.5,39.422L78,39.415L79.5,39.408L81,39.4L82.5,39.391L84,39.381L85.5,39.37L87,39.359L88.5,39.347L90,39.335L91.5,39.322L93,39.308L94.5,39.294L96,39.28L97.5,39.265L99,39.25L100.5,39.234L102,39.219L103.5,39.202L105,39.186L106.5,39.169L108,39.151L109.5,39.133L111,39.115L112.5,39.096L114,39.077L115.5,39.058L117,39.037L118.5,39.017L120,38.995L121.5,38.973L123,38.95L124.5,38.926L126,38.902L127.5,38.876L129,38.85L130.5,38.822L132,38.793L133.5,38.764L135,38.733L136.5,38.701L138,38.667L139.5,38.633L141,38.597L142.5,38.559L144,38.52L145.5,38.48L147,38.439L148.5,38.396L150,38.352L151.5,38.307L153,38.26L154.5,38.212L156,38.164L157.5,38.114L159,38.063L160.5,38.012L162,37.959L163.5,37.907L165,37.853L166.5,37.8L168,37.746L169.5,37.692L171,37.639L172.5,37.585L174,37.532L175.5,37.48L177,37.429L178.5,37.378L180,37.328L181.5,37.28L183,37.233L184.5,37.188L186,37.144L187.5,37.102L189,37.061L190.5,37.023L192,36.986L193.5,36.951L195,36.919L196.5,36.888L198,36.859L199.5,36.831L201,36.806L202.5,36.782L204,36.76L205.5,36.738L207,36.719L208.5,36.699L210,36.681L211.5,36.663L213,36.646L214.5,36.628L216,36.61L217.5,36.591L219,36.571L220.5,36.549L222,36.526L223.5,36.501L225,36.473L226.5,36.442L228,36.408L229.5,36.371L231,36.33L232.5,36.285L234,36.235L235.5,36.181L237,36.122L238.5,36.057L240,35.988L241.5,35.913L243,35.832L244.5,35.746L246,35.655L247.5,35.558L249,35.455L250.5,35.347L252,35.234L253.5,35.117L255,34.994L256.5,34.867L258,34.737L259.5,34.603L261,34.466L262.5,34.326L264,34.185L265.5,34.042L267,33.898L268.5,33.755L270,33.612L271.5,33.47L273,33.331L274.5,33.194L276,33.061L277.5,32.932L279,32.808L280.5,32.69L282,32.578L283.5,32.473L285,32.376L286.5,32.287L288,32.207L289.5,32.137L291,32.077L292.5,32.027L294,31.988L295.5,31.96L297,31.944L298.5,31.939L300,31.946L300,40L298.5,40L297,40L295.5,40L294,40L292.5,40L291,40L289.5,40L288,40L286.5,40L285,40L283.5,40L282,40L280.5,40L279,40L277.5,40L276,40L274.5,40L273,40L271.5,40L270,40L268.5,40L267,40L265.5,40L264,40L262.5,40L261,40L259.5,40L258,40L256.5,40L255,40L253.5,40L252,40L250.5,40L249,40L247.5,40L246,40L244.5,40L243,40L241.5,40L240,40L238.5,40L237,40L235.5,40L234,40L232.5,40L231,40L229.5,40L228,40L226.5,40L225,40L223.5,40L222,40L220.5,40L219,40L217.5,40L216,40L214.5,40L213,40L211.5,40L210,40L208.5,40L207,40L205.5,40L204,40L202.5,40L201,40L199.5,40L198,40L196.5,40L195,40L193.5,40L192,40L190.5,40L189,40L187.5,40L186,40L184.5,40L183,40L181.5,40L180,40L178.5,40L177,40L175.5,40L174,40L172.5,40L171,40L169.5,40L168,40L166.5,40L165,40L163.5,40L162,40L160.5,40L159,40L157.5,40L156,40L154.5,40L153,40L151.5,40L150,40L148.5,40L147,40L145.5,40L144,40L142.5,40L141,40L139.5,40L138,40L136.5,40L135,40L133.5,40L132,40L130.5,40L129,40L127.5,40L126,40L124.5,40L123,40L121.5,40L120,40L118.5,40L117,40L115.5,40L114,40L112.5,40L111,40L109.5,40L108,40L106.5,40L105,40L103.5,40L102,40L100.5,40L99,40L97.5,40L96,40L94.5,40L93,40L91.5,40L90,40L88.5,40L87,40L85.5,40L84,40L82.5,40L81,40L79.5,40L78,40L76.5,40L75,40L73.5,40L72,40L70.5,40L69,40L67.5,40L66,40L64.5,40L63,40L61.5,40L60,40L58.5,40L57,40L55.5,40L54,40L52.5,40L51,40L49.5,40L48,40L46.5,40L45,40L43.5,40L42,40L40.5,40L39,40L37.5,40L36,40L34.5,40L33,40L31.5,40L30,40L28.5,40L27,40L25.5,40L24,40L22.5,40L21,40L19.5,40L18,40L16.5,40L15,40L13.5,40L12,40L10.5,40L9,40L7.5,40L6,40L4.5,40L3,40L1.5,40L0,40Z" fill="#4c78a8"/></g></g><path class="foreground" aria-hidden="true" d="" display="none"/></g><g transform="translate(0,42)"><path class="background" aria-hidden="true" d="M0.5,0.5h300v40h-300Z" stroke="#ddd"/><g><g class="mark-group role-axis" aria-hidden="true"><g transform="translate(0.5,40.5)"><path class="background" aria-hidden="true" d="M0,0h0v0h0Z" pointer-events="none"/><g><g class="mark-rule role-axis-grid" pointer-events="none"><line transform="translate(0,-40)" x2="0" y2="40" stroke="#ddd" stroke-width="1" opacity="1"/><line transform="translate(30,-40)" x2="0" y2="40" stroke="#ddd" stroke-width="1" opacity="1"/><line transform="translate(60,-40)" x2="0" y2="40" stroke="#ddd" stroke-width="1" opacity="1"/><line transform="translate(90,-40)" x2="0" y2="40" stroke="#ddd" stroke-width="1" opacity="1"/><line transform="translate(120,-40)" x2="0" y2="40" stroke="#ddd" stroke-width="1" opacity="1"/><line transform="translate(150,-40)" x2="0" y2="40" stroke="#ddd" stroke-width="1" opacity="1"/><line transform="translate(180,-40)" x2="0" y2="40" stroke="#ddd" stroke-width="1" opacity="1"/><line transform="translate(210,-40)" x2="0" y2="40" stroke="#ddd" stroke-width="1" opacity="1"/><line transform="translate(240,-40)" x2="0" y2="40" stroke="#ddd" stroke-width="1" opacity="1"/><line transform="translate(270,-40)" x2="0" y2="40" stroke="#ddd" stroke-width="1" opacity="1"/><line transform="translate(300,-40)" x2="0" y2="40" stroke="#ddd" stroke-width="1" opacity="1"/></g></g><path class="foreground" aria-hidden="true" d="" pointer-events="none" display="none"/></g></g><g class="mark-group role-axis" aria-hidden="true"><g transform="translate(0.5,0.5)"><path class="background" aria-hidden="true" d="M0,0h0v0h0Z" pointer-events="none"/><g><g class="mark-rule role-axis-grid" pointer-events="none"><line transform="translate(0,40)" x2="300" y2="0" stroke="#ddd" stroke-width="1" opacity="1"/><line transform="translate(0,0)" x2="300" y2="0" stroke="#ddd" stroke-width="1" opacity="1"/></g></g><path class="foreground" aria-hidden="true" d="" pointer-events="none" display="none"/></g></g><g class="mark-area role-mark child_marks" role="graphics-object" aria-roledescription="area mark container"><path aria-label="percent of pareto confs identified: 0; density: 0.586351579584" role="graphics-symbol" aria-roledescription="area mark" d="M0,37.655L1.5,37.685L3,37.774L4.5,37.915L6,38.097L7.5,38.308L9,38.535L10.5,38.764L12,38.984L13.5,39.186L15,39.365L16.5,39.518L18,39.643L19.5,39.742L21,39.819L22.5,39.876L24,39.917L25.5,39.946L27,39.966L28.5,39.979L30,39.987L31.5,39.993L33,39.996L34.5,39.998L36,39.999L37.5,39.999L39,40L40.5,40L42,40L43.5,40L45,40L46.5,40L48,40L49.5,40L51,40L52.5,40L54,40L55.5,40L57,40L58.5,40L60,40L61.5,40L63,40L64.5,40L66,40L67.5,40L69,40L70.5,40L72,40L73.5,40L75,40L76.5,40L78,40L79.5,40L81,40L82.5,40L84,40L85.5,40L87,40L88.5,40L90,40L91.5,40L93,40L94.5,40L96,40L97.5,40L99,40L100.5,40L102,40L103.5,40L105,40L106.5,40L108,40L109.5,40L111,39.999L112.5,39.999L114,39.997L115.5,39.995L117,39.992L118.5,39.985L120,39.975L121.5,39.958L123,39.932L124.5,39.893L126,39.835L127.5,39.752L129,39.638L130.5,39.485L132,39.286L133.5,39.035L135,38.73L136.5,38.373L138,37.968L139.5,37.528L141,37.07L142.5,36.617L144,36.194L145.5,35.83L147,35.548L148.5,35.37L150,35.309L151.5,35.37L153,35.548L154.5,35.83L156,36.194L157.5,36.616L159,37.069L160.5,37.527L162,37.966L163.5,38.37L165,38.726L166.5,39.026L168,39.27L169.5,39.458L171,39.594L172.5,39.68L174,39.719L175.5,39.713L177,39.661L178.5,39.558L180,39.401L181.5,39.182L183,38.897L184.5,38.543L186,38.119L187.5,37.633L189,37.096L190.5,36.528L192,35.957L193.5,35.412L195,34.929L196.5,34.539L198,34.271L199.5,34.145L201,34.17L202.5,34.346L204,34.657L205.5,35.081L207,35.589L208.5,36.146L210,36.72L211.5,37.28L213,37.803L214.5,38.271L216,38.675L217.5,39.01L219,39.28L220.5,39.489L222,39.647L223.5,39.763L225,39.845L226.5,39.901L228,39.938L229.5,39.963L231,39.978L232.5,39.987L234,39.993L235.5,39.996L237,39.998L238.5,39.999L240,39.999L241.5,40L243,40L244.5,40L246,40L247.5,40L249,40L250.5,40L252,40L253.5,40L255,40L256.5,39.999L258,39.999L259.5,39.997L261,39.994L262.5,39.989L264,39.979L265.5,39.962L267,39.931L268.5,39.878L270,39.792L271.5,39.654L273,39.439L274.5,39.114L276,38.636L277.5,37.955L279,37.013L280.5,35.749L282,34.107L283.5,32.04L285,29.526L286.5,26.574L288,23.233L289.5,19.602L291,15.825L292.5,12.087L294,8.603L295.5,5.595L297,3.272L298.5,1.803L300,1.301L300,40L298.5,40L297,40L295.5,40L294,40L292.5,40L291,40L289.5,40L288,40L286.5,40L285,40L283.5,40L282,40L280.5,40L279,40L277.5,40L276,40L274.5,40L273,40L271.5,40L270,40L268.5,40L267,40L265.5,40L264,40L262.5,40L261,40L259.5,40L258,40L256.5,40L255,40L253.5,40L252,40L250.5,40L249,40L247.5,40L246,40L244.5,40L243,40L241.5,40L240,40L238.5,40L237,40L235.5,40L234,40L232.5,40L231,40L229.5,40L228,40L226.5,40L225,40L223.5,40L222,40L220.5,40L219,40L217.5,40L216,40L214.5,40L213,40L211.5,40L210,40L208.5,40L207,40L205.5,40L204,40L202.5,40L201,40L199.5,40L198,40L196.5,40L195,40L193.5,40L192,40L190.5,40L189,40L187.5,40L186,40L184.5,40L183,40L181.5,40L180,40L178.5,40L177,40L175.5,40L174,40L172.5,40L171,40L169.5,40L168,40L166.5,40L165,40L163.5,40L162,40L160.5,40L159,40L157.5,40L156,40L154.5,40L153,40L151.5,40L150,40L148.5,40L147,40L145.5,40L144,40L142.5,40L141,40L139.5,40L138,40L136.5,40L135,40L133.5,40L132,40L130.5,40L129,40L127.5,40L126,40L124.5,40L123,40L121.5,40L120,40L118.5,40L117,40L115.5,40L114,40L112.5,40L111,40L109.5,40L108,40L106.5,40L105,40L103.5,40L102,40L100.5,40L99,40L97.5,40L96,40L94.5,40L93,40L91.5,40L90,40L88.5,40L87,40L85.5,40L84,40L82.5,40L81,40L79.5,40L78,40L76.5,40L75,40L73.5,40L72,40L70.5,40L69,40L67.5,40L66,40L64.5,40L63,40L61.5,40L60,40L58.5,40L57,40L55.5,40L54,40L52.5,40L51,40L49.5,40L48,40L46.5,40L45,40L43.5,40L42,40L40.5,40L39,40L37.5,40L36,40L34.5,40L33,40L31.5,40L30,40L28.5,40L27,40L25.5,40L24,40L22.5,40L21,40L19.5,40L18,40L16.5,40L15,40L13.5,40L12,40L10.5,40L9,40L7.5,40L6,40L4.5,40L3,40L1.5,40L0,40Z" fill="#4c78a8"/></g></g><path class="foreground" aria-hidden="true" d="" display="none"/></g><g transform="translate(0,84)"><path class="background" aria-hidden="true" d="M0.5,0.5h300v40h-300Z" stroke="#ddd"/><g><g class="mark-group role-axis" aria-hidden="true"><g transform="translate(0.5,40.5)"><path class="background" aria-hidden="true" d="M0,0h0v0h0Z" pointer-events="none"/><g><g class="mark-rule role-axis-grid" pointer-events="none"><line transform="translate(0,-40)" x2="0" y2="40" stroke="#ddd" stroke-width="1" opacity="1"/><line transform="translate(30,-40)" x2="0" y2="40" stroke="#ddd" stroke-width="1" opacity="1"/><line transform="translate(60,-40)" x2="0" y2="40" stroke="#ddd" stroke-width="1" opacity="1"/><line transform="translate(90,-40)" x2="0" y2="40" stroke="#ddd" stroke-width="1" opacity="1"/><line transform="translate(120,-40)" x2="0" y2="40" stroke="#ddd" stroke-width="1" opacity="1"/><line transform="translate(150,-40)" x2="0" y2="40" stroke="#ddd" stroke-width="1" opacity="1"/><line transform="translate(180,-40)" x2="0" y2="40" stroke="#ddd" stroke-width="1" opacity="1"/><line transform="translate(210,-40)" x2="0" y2="40" stroke="#ddd" stroke-width="1" opacity="1"/><line transform="translate(240,-40)" x2="0" y2="40" stroke="#ddd" stroke-width="1" opacity="1"/><line transform="translate(270,-40)" x2="0" y2="40" stroke="#ddd" stroke-width="1" opacity="1"/><line transform="translate(300,-40)" x2="0" y2="40" stroke="#ddd" stroke-width="1" opacity="1"/></g></g><path class="foreground" aria-hidden="true" d="" pointer-events="none" display="none"/></g></g><g class="mark-group role-axis" aria-hidden="true"><g transform="translate(0.5,0.5)"><path class="background" aria-hidden="true" d="M0,0h0v0h0Z" pointer-events="none"/><g><g class="mark-rule role-axis-grid" pointer-events="none"><line transform="translate(0,40)" x2="300" y2="0" stroke="#ddd" stroke-width="1" opacity="1"/><line transform="translate(0,0)" x2="300" y2="0" stroke="#ddd" stroke-width="1" opacity="1"/></g></g><path class="foreground" aria-hidden="true" d="" pointer-events="none" display="none"/></g></g><g class="mark-area role-mark child_marks" role="graphics-object" aria-roledescription="area mark container"><path aria-label="percent of pareto confs identified: 0; density: 0.488920626384" role="graphics-symbol" aria-roledescription="area mark" d="M0,38.044L1.5,38.041L3,38.039L4.5,38.037L6,38.037L7.5,38.037L9,38.038L10.5,38.04L12,38.042L13.5,38.046L15,38.05L16.5,38.055L18,38.061L19.5,38.067L21,38.074L22.5,38.082L24,38.09L25.5,38.099L27,38.108L28.5,38.118L30,38.129L31.5,38.139L33,38.151L34.5,38.162L36,38.174L37.5,38.186L39,38.199L40.5,38.212L42,38.225L43.5,38.238L45,38.251L46.5,38.264L48,38.278L49.5,38.291L51,38.304L52.5,38.318L54,38.331L55.5,38.344L57,38.357L58.5,38.37L60,38.382L61.5,38.395L63,38.407L64.5,38.418L66,38.43L67.5,38.441L69,38.451L70.5,38.462L72,38.471L73.5,38.481L75,38.49L76.5,38.498L78,38.506L79.5,38.514L81,38.521L82.5,38.527L84,38.533L85.5,38.538L87,38.543L88.5,38.547L90,38.551L91.5,38.554L93,38.556L94.5,38.558L96,38.56L97.5,38.561L99,38.561L100.5,38.561L102,38.56L103.5,38.558L105,38.556L106.5,38.554L108,38.551L109.5,38.547L111,38.543L112.5,38.539L114,38.534L115.5,38.528L117,38.523L118.5,38.516L120,38.509L121.5,38.502L123,38.494L124.5,38.486L126,38.478L127.5,38.469L129,38.459L130.5,38.45L132,38.44L133.5,38.429L135,38.418L136.5,38.407L138,38.396L139.5,38.384L141,38.372L142.5,38.359L144,38.346L145.5,38.333L147,38.32L148.5,38.306L150,38.292L151.5,38.277L153,38.262L154.5,38.247L156,38.231L157.5,38.215L159,38.199L160.5,38.182L162,38.165L163.5,38.147L165,38.129L166.5,38.111L168,38.092L169.5,38.073L171,38.053L172.5,38.033L174,38.012L175.5,37.991L177,37.969L178.5,37.947L180,37.924L181.5,37.901L183,37.877L184.5,37.853L186,37.828L187.5,37.802L189,37.776L190.5,37.749L192,37.721L193.5,37.693L195,37.664L196.5,37.635L198,37.605L199.5,37.574L201,37.542L202.5,37.51L204,37.477L205.5,37.444L207,37.41L208.5,37.375L210,37.34L211.5,37.304L213,37.267L214.5,37.23L216,37.193L217.5,37.154L219,37.116L220.5,37.076L222,37.037L223.5,36.996L225,36.956L226.5,36.915L228,36.874L229.5,36.832L231,36.79L232.5,36.748L234,36.706L235.5,36.664L237,36.622L238.5,36.58L240,36.537L241.5,36.495L243,36.453L244.5,36.412L246,36.37L247.5,36.329L249,36.289L250.5,36.249L252,36.209L253.5,36.17L255,36.132L256.5,36.094L258,36.058L259.5,36.022L261,35.987L262.5,35.953L264,35.92L265.5,35.889L267,35.858L268.5,35.829L270,35.801L271.5,35.775L273,35.75L274.5,35.727L276,35.705L277.5,35.684L279,35.666L280.5,35.649L282,35.634L283.5,35.621L285,35.609L286.5,35.6L288,35.592L289.5,35.587L291,35.583L292.5,35.581L294,35.582L295.5,35.584L297,35.589L298.5,35.595L300,35.604L300,40L298.5,40L297,40L295.5,40L294,40L292.5,40L291,40L289.5,40L288,40L286.5,40L285,40L283.5,40L282,40L280.5,40L279,40L277.5,40L276,40L274.5,40L273,40L271.5,40L270,40L268.5,40L267,40L265.5,40L264,40L262.5,40L261,40L259.5,40L258,40L256.5,40L255,40L253.5,40L252,40L250.5,40L249,40L247.5,40L246,40L244.5,40L243,40L241.5,40L240,40L238.5,40L237,40L235.5,40L234,40L232.5,40L231,40L229.5,40L228,40L226.5,40L225,40L223.5,40L222,40L220.5,40L219,40L217.5,40L216,40L214.5,40L213,40L211.5,40L210,40L208.5,40L207,40L205.5,40L204,40L202.5,40L201,40L199.5,40L198,40L196.5,40L195,40L193.5,40L192,40L190.5,40L189,40L187.5,40L186,40L184.5,40L183,40L181.5,40L180,40L178.5,40L177,40L175.5,40L174,40L172.5,40L171,40L169.5,40L168,40L166.5,40L165,40L163.5,40L162,40L160.5,40L159,40L157.5,40L156,40L154.5,40L153,40L151.5,40L150,40L148.5,40L147,40L145.5,40L144,40L142.5,40L141,40L139.5,40L138,40L136.5,40L135,40L133.5,40L132,40L130.5,40L129,40L127.5,40L126,40L124.5,40L123,40L121.5,40L120,40L118.5,40L117,40L115.5,40L114,40L112.5,40L111,40L109.5,40L108,40L106.5,40L105,40L103.5,40L102,40L100.5,40L99,40L97.5,40L96,40L94.5,40L93,40L91.5,40L90,40L88.5,40L87,40L85.5,40L84,40L82.5,40L81,40L79.5,40L78,40L76.5,40L75,40L73.5,40L72,40L70.5,40L69,40L67.5,40L66,40L64.5,40L63,40L61.5,40L60,40L58.5,40L57,40L55.5,40L54,40L52.5,40L51,40L49.5,40L48,40L46.5,40L45,40L43.5,40L42,40L40.5,40L39,40L37.5,40L36,40L34.5,40L33,40L31.5,40L30,40L28.5,40L27,40L25.5,40L24,40L22.5,40L21,40L19.5,40L18,40L16.5,40L15,40L13.5,40L12,40L10.5,40L9,40L7.5,40L6,40L4.5,40L3,40L1.5,40L0,40Z" fill="#4c78a8"/></g></g><path class="foreground" aria-hidden="true" d="" display="none"/></g><g transform="translate(0,126)"><path class="background" aria-hidden="true" d="M0.5,0.5h300v40h-300Z" stroke="#ddd"/><g><g class="mark-group role-axis" aria-hidden="true"><g transform="translate(0.5,40.5)"><path class="background" aria-hidden="true" d="M0,0h0v0h0Z" pointer-events="none"/><g><g class="mark-rule role-axis-grid" pointer-events="none"><line transform="translate(0,-40)" x2="0" y2="40" stroke="#ddd" stroke-width="1" opacity="1"/><line transform="translate(30,-40)" x2="0" y2="40" stroke="#ddd" stroke-width="1" opacity="1"/><line transform="translate(60,-40)" x2="0" y2="40" stroke="#ddd" stroke-width="1" opacity="1"/><line transform="translate(90,-40)" x2="0" y2="40" stroke="#ddd" stroke-width="1" opacity="1"/><line transform="translate(120,-40)" x2="0" y2="40" stroke="#ddd" stroke-width="1" opacity="1"/><line transform="translate(150,-40)" x2="0" y2="40" stroke="#ddd" stroke-width="1" opacity="1"/><line transform="translate(180,-40)" x2="0" y2="40" stroke="#ddd" stroke-width="1" opacity="1"/><line transform="translate(210,-40)" x2="0" y2="40" stroke="#ddd" stroke-width="1" opacity="1"/><line transform="translate(240,-40)" x2="0" y2="40" stroke="#ddd" stroke-width="1" opacity="1"/><line transform="translate(270,-40)" x2="0" y2="40" stroke="#ddd" stroke-width="1" opacity="1"/><line transform="translate(300,-40)" x2="0" y2="40" stroke="#ddd" stroke-width="1" opacity="1"/></g></g><path class="foreground" aria-hidden="true" d="" pointer-events="none" display="none"/></g></g><g class="mark-group role-axis" aria-hidden="true"><g transform="translate(0.5,0.5)"><path class="background" aria-hidden="true" d="M0,0h0v0h0Z" pointer-events="none"/><g><g class="mark-rule role-axis-grid" pointer-events="none"><line transform="translate(0,40)" x2="300" y2="0" stroke="#ddd" stroke-width="1" opacity="1"/><line transform="translate(0,0)" x2="300" y2="0" stroke="#ddd" stroke-width="1" opacity="1"/></g></g><path class="foreground" aria-hidden="true" d="" pointer-events="none" display="none"/></g></g><g class="mark-area role-mark child_marks" role="graphics-object" aria-roledescription="area mark container"><path aria-label="percent of pareto confs identified: 0; density: 0.244672344874" role="graphics-symbol" aria-roledescription="area mark" d="M0,39.021L1.5,39.015L3,39.01L4.5,39.005L6,39L7.5,38.996L9,38.992L10.5,38.988L12,38.985L13.5,38.983L15,38.98L16.5,38.978L18,38.976L19.5,38.974L21,38.972L22.5,38.971L24,38.969L25.5,38.968L27,38.967L28.5,38.965L30,38.964L31.5,38.962L33,38.96L34.5,38.959L36,38.957L37.5,38.954L39,38.952L40.5,38.949L42,38.945L43.5,38.942L45,38.937L46.5,38.933L48,38.928L49.5,38.922L51,38.916L52.5,38.909L54,38.902L55.5,38.894L57,38.886L58.5,38.877L60,38.867L61.5,38.856L63,38.845L64.5,38.833L66,38.821L67.5,38.808L69,38.794L70.5,38.779L72,38.764L73.5,38.748L75,38.731L76.5,38.714L78,38.696L79.5,38.677L81,38.658L82.5,38.638L84,38.618L85.5,38.596L87,38.575L88.5,38.552L90,38.53L91.5,38.506L93,38.483L94.5,38.459L96,38.434L97.5,38.409L99,38.384L100.5,38.358L102,38.332L103.5,38.306L105,38.279L106.5,38.252L108,38.225L109.5,38.198L111,38.171L112.5,38.143L114,38.116L115.5,38.089L117,38.061L118.5,38.034L120,38.006L121.5,37.979L123,37.952L124.5,37.925L126,37.898L127.5,37.872L129,37.845L130.5,37.819L132,37.793L133.5,37.768L135,37.743L136.5,37.718L138,37.694L139.5,37.67L141,37.646L142.5,37.623L144,37.6L145.5,37.578L147,37.556L148.5,37.535L150,37.514L151.5,37.494L153,37.474L154.5,37.455L156,37.437L157.5,37.418L159,37.401L160.5,37.384L162,37.367L163.5,37.351L165,37.335L166.5,37.32L168,37.305L169.5,37.29L171,37.276L172.5,37.262L174,37.249L175.5,37.235L177,37.222L178.5,37.209L180,37.196L181.5,37.184L183,37.171L184.5,37.158L186,37.145L187.5,37.132L189,37.118L190.5,37.105L192,37.091L193.5,37.076L195,37.061L196.5,37.045L198,37.029L199.5,37.011L201,36.993L202.5,36.974L204,36.954L205.5,36.933L207,36.911L208.5,36.888L210,36.863L211.5,36.837L213,36.81L214.5,36.781L216,36.751L217.5,36.719L219,36.685L220.5,36.65L222,36.613L223.5,36.574L225,36.534L226.5,36.492L228,36.448L229.5,36.402L231,36.355L232.5,36.306L234,36.256L235.5,36.203L237,36.15L238.5,36.094L240,36.038L241.5,35.98L243,35.92L244.5,35.86L246,35.798L247.5,35.736L249,35.673L250.5,35.609L252,35.544L253.5,35.479L255,35.414L256.5,35.349L258,35.284L259.5,35.22L261,35.156L262.5,35.092L264,35.03L265.5,34.968L267,34.908L268.5,34.849L270,34.792L271.5,34.737L273,34.684L274.5,34.633L276,34.585L277.5,34.539L279,34.496L280.5,34.456L282,34.419L283.5,34.385L285,34.355L286.5,34.329L288,34.306L289.5,34.288L291,34.273L292.5,34.262L294,34.256L295.5,34.254L297,34.256L298.5,34.262L300,34.273L300,40L298.5,40L297,40L295.5,40L294,40L292.5,40L291,40L289.5,40L288,40L286.5,40L285,40L283.5,40L282,40L280.5,40L279,40L277.5,40L276,40L274.5,40L273,40L271.5,40L270,40L268.5,40L267,40L265.5,40L264,40L262.5,40L261,40L259.5,40L258,40L256.5,40L255,40L253.5,40L252,40L250.5,40L249,40L247.5,40L246,40L244.5,40L243,40L241.5,40L240,40L238.5,40L237,40L235.5,40L234,40L232.5,40L231,40L229.5,40L228,40L226.5,40L225,40L223.5,40L222,40L220.5,40L219,40L217.5,40L216,40L214.5,40L213,40L211.5,40L210,40L208.5,40L207,40L205.5,40L204,40L202.5,40L201,40L199.5,40L198,40L196.5,40L195,40L193.5,40L192,40L190.5,40L189,40L187.5,40L186,40L184.5,40L183,40L181.5,40L180,40L178.5,40L177,40L175.5,40L174,40L172.5,40L171,40L169.5,40L168,40L166.5,40L165,40L163.5,40L162,40L160.5,40L159,40L157.5,40L156,40L154.5,40L153,40L151.5,40L150,40L148.5,40L147,40L145.5,40L144,40L142.5,40L141,40L139.5,40L138,40L136.5,40L135,40L133.5,40L132,40L130.5,40L129,40L127.5,40L126,40L124.5,40L123,40L121.5,40L120,40L118.5,40L117,40L115.5,40L114,40L112.5,40L111,40L109.5,40L108,40L106.5,40L105,40L103.5,40L102,40L100.5,40L99,40L97.5,40L96,40L94.5,40L93,40L91.5,40L90,40L88.5,40L87,40L85.5,40L84,40L82.5,40L81,40L79.5,40L78,40L76.5,40L75,40L73.5,40L72,40L70.5,40L69,40L67.5,40L66,40L64.5,40L63,40L61.5,40L60,40L58.5,40L57,40L55.5,40L54,40L52.5,40L51,40L49.5,40L48,40L46.5,40L45,40L43.5,40L42,40L40.5,40L39,40L37.5,40L36,40L34.5,40L33,40L31.5,40L30,40L28.5,40L27,40L25.5,40L24,40L22.5,40L21,40L19.5,40L18,40L16.5,40L15,40L13.5,40L12,40L10.5,40L9,40L7.5,40L6,40L4.5,40L3,40L1.5,40L0,40Z" fill="#4c78a8"/></g></g><path class="foreground" aria-hidden="true" d="" display="none"/></g><g transform="translate(0,168)"><path class="background" aria-hidden="true" d="M0.5,0.5h300v40h-300Z" stroke="#ddd"/><g><g class="mark-group role-axis" aria-hidden="true"><g transform="translate(0.5,40.5)"><path class="background" aria-hidden="true" d="M0,0h0v0h0Z" pointer-events="none"/><g><g class="mark-rule role-axis-grid" pointer-events="none"><line transform="translate(0,-40)" x2="0" y2="40" stroke="#ddd" stroke-width="1" opacity="1"/><line transform="translate(30,-40)" x2="0" y2="40" stroke="#ddd" stroke-width="1" opacity="1"/><line transform="translate(60,-40)" x2="0" y2="40" stroke="#ddd" stroke-width="1" opacity="1"/><line transform="translate(90,-40)" x2="0" y2="40" stroke="#ddd" stroke-width="1" opacity="1"/><line transform="translate(120,-40)" x2="0" y2="40" stroke="#ddd" stroke-width="1" opacity="1"/><line transform="translate(150,-40)" x2="0" y2="40" stroke="#ddd" stroke-width="1" opacity="1"/><line transform="translate(180,-40)" x2="0" y2="40" stroke="#ddd" stroke-width="1" opacity="1"/><line transform="translate(210,-40)" x2="0" y2="40" stroke="#ddd" stroke-width="1" opacity="1"/><line transform="translate(240,-40)" x2="0" y2="40" stroke="#ddd" stroke-width="1" opacity="1"/><line transform="translate(270,-40)" x2="0" y2="40" stroke="#ddd" stroke-width="1" opacity="1"/><line transform="translate(300,-40)" x2="0" y2="40" stroke="#ddd" stroke-width="1" opacity="1"/></g></g><path class="foreground" aria-hidden="true" d="" pointer-events="none" display="none"/></g></g><g class="mark-group role-axis" aria-hidden="true"><g transform="translate(0.5,0.5)"><path class="background" aria-hidden="true" d="M0,0h0v0h0Z" pointer-events="none"/><g><g class="mark-rule role-axis-grid" pointer-events="none"><line transform="translate(0,40)" x2="300" y2="0" stroke="#ddd" stroke-width="1" opacity="1"/><line transform="translate(0,0)" x2="300" y2="0" stroke="#ddd" stroke-width="1" opacity="1"/></g></g><path class="foreground" aria-hidden="true" d="" pointer-events="none" display="none"/></g></g><g class="mark-area role-mark child_marks" role="graphics-object" aria-roledescription="area mark container"><path aria-label="percent of pareto confs identified: 0; density: 0.294570378924" role="graphics-symbol" aria-roledescription="area mark" d="M0,38.822L1.5,38.817L3,38.813L4.5,38.809L6,38.806L7.5,38.803L9,38.801L10.5,38.799L12,38.797L13.5,38.796L15,38.795L16.5,38.794L18,38.793L19.5,38.793L21,38.792L22.5,38.792L24,38.791L25.5,38.79L27,38.79L28.5,38.789L30,38.787L31.5,38.786L33,38.784L34.5,38.781L36,38.778L37.5,38.775L39,38.771L40.5,38.766L42,38.76L43.5,38.754L45,38.747L46.5,38.739L48,38.729L49.5,38.719L51,38.708L52.5,38.696L54,38.682L55.5,38.667L57,38.651L58.5,38.634L60,38.616L61.5,38.596L63,38.574L64.5,38.551L66,38.527L67.5,38.502L69,38.475L70.5,38.446L72,38.416L73.5,38.385L75,38.352L76.5,38.318L78,38.282L79.5,38.245L81,38.206L82.5,38.166L84,38.125L85.5,38.083L87,38.039L88.5,37.994L90,37.948L91.5,37.901L93,37.853L94.5,37.804L96,37.754L97.5,37.703L99,37.652L100.5,37.6L102,37.547L103.5,37.494L105,37.441L106.5,37.387L108,37.333L109.5,37.279L111,37.225L112.5,37.171L114,37.117L115.5,37.063L117,37.01L118.5,36.957L120,36.905L121.5,36.853L123,36.803L124.5,36.753L126,36.704L127.5,36.656L129,36.609L130.5,36.564L132,36.519L133.5,36.476L135,36.435L136.5,36.395L138,36.357L139.5,36.32L141,36.285L142.5,36.252L144,36.221L145.5,36.191L147,36.164L148.5,36.138L150,36.114L151.5,36.092L153,36.073L154.5,36.055L156,36.039L157.5,36.025L159,36.013L160.5,36.003L162,35.995L163.5,35.989L165,35.985L166.5,35.983L168,35.982L169.5,35.983L171,35.986L172.5,35.99L174,35.996L175.5,36.004L177,36.013L178.5,36.023L180,36.034L181.5,36.047L183,36.061L184.5,36.075L186,36.091L187.5,36.107L189,36.124L190.5,36.141L192,36.159L193.5,36.178L195,36.196L196.5,36.215L198,36.234L199.5,36.252L201,36.271L202.5,36.289L204,36.308L205.5,36.325L207,36.342L208.5,36.359L210,36.375L211.5,36.39L213,36.404L214.5,36.417L216,36.43L217.5,36.441L219,36.451L220.5,36.461L222,36.469L223.5,36.475L225,36.481L226.5,36.485L228,36.488L229.5,36.49L231,36.49L232.5,36.489L234,36.487L235.5,36.483L237,36.478L238.5,36.472L240,36.465L241.5,36.457L243,36.447L244.5,36.437L246,36.425L247.5,36.413L249,36.399L250.5,36.385L252,36.37L253.5,36.355L255,36.339L256.5,36.322L258,36.306L259.5,36.289L261,36.271L262.5,36.254L264,36.237L265.5,36.22L267,36.204L268.5,36.187L270,36.172L271.5,36.157L273,36.142L274.5,36.129L276,36.116L277.5,36.105L279,36.094L280.5,36.085L282,36.077L283.5,36.071L285,36.066L286.5,36.063L288,36.061L289.5,36.061L291,36.063L292.5,36.067L294,36.073L295.5,36.08L297,36.09L298.5,36.102L300,36.116L300,40L298.5,40L297,40L295.5,40L294,40L292.5,40L291,40L289.5,40L288,40L286.5,40L285,40L283.5,40L282,40L280.5,40L279,40L277.5,40L276,40L274.5,40L273,40L271.5,40L270,40L268.5,40L267,40L265.5,40L264,40L262.5,40L261,40L259.5,40L258,40L256.5,40L255,40L253.5,40L252,40L250.5,40L249,40L247.5,40L246,40L244.5,40L243,40L241.5,40L240,40L238.5,40L237,40L235.5,40L234,40L232.5,40L231,40L229.5,40L228,40L226.5,40L225,40L223.5,40L222,40L220.5,40L219,40L217.5,40L216,40L214.5,40L213,40L211.5,40L210,40L208.5,40L207,40L205.5,40L204,40L202.5,40L201,40L199.5,40L198,40L196.5,40L195,40L193.5,40L192,40L190.5,40L189,40L187.5,40L186,40L184.5,40L183,40L181.5,40L180,40L178.5,40L177,40L175.5,40L174,40L172.5,40L171,40L169.5,40L168,40L166.5,40L165,40L163.5,40L162,40L160.5,40L159,40L157.5,40L156,40L154.5,40L153,40L151.5,40L150,40L148.5,40L147,40L145.5,40L144,40L142.5,40L141,40L139.5,40L138,40L136.5,40L135,40L133.5,40L132,40L130.5,40L129,40L127.5,40L126,40L124.5,40L123,40L121.5,40L120,40L118.5,40L117,40L115.5,40L114,40L112.5,40L111,40L109.5,40L108,40L106.5,40L105,40L103.5,40L102,40L100.5,40L99,40L97.5,40L96,40L94.5,40L93,40L91.5,40L90,40L88.5,40L87,40L85.5,40L84,40L82.5,40L81,40L79.5,40L78,40L76.5,40L75,40L73.5,40L72,40L70.5,40L69,40L67.5,40L66,40L64.5,40L63,40L61.5,40L60,40L58.5,40L57,40L55.5,40L54,40L52.5,40L51,40L49.5,40L48,40L46.5,40L45,40L43.5,40L42,40L40.5,40L39,40L37.5,40L36,40L34.5,40L33,40L31.5,40L30,40L28.5,40L27,40L25.5,40L24,40L22.5,40L21,40L19.5,40L18,40L16.5,40L15,40L13.5,40L12,40L10.5,40L9,40L7.5,40L6,40L4.5,40L3,40L1.5,40L0,40Z" fill="#4c78a8"/></g></g><path class="foreground" aria-hidden="true" d="" display="none"/></g><g transform="translate(0,210)"><path class="background" aria-hidden="true" d="M0.5,0.5h300v40h-300Z" stroke="#ddd"/><g><g class="mark-group role-axis" aria-hidden="true"><g transform="translate(0.5,40.5)"><path class="background" aria-hidden="true" d="M0,0h0v0h0Z" pointer-events="none"/><g><g class="mark-rule role-axis-grid" pointer-events="none"><line transform="translate(0,-40)" x2="0" y2="40" stroke="#ddd" stroke-width="1" opacity="1"/><line transform="translate(30,-40)" x2="0" y2="40" stroke="#ddd" stroke-width="1" opacity="1"/><line transform="translate(60,-40)" x2="0" y2="40" stroke="#ddd" stroke-width="1" opacity="1"/><line transform="translate(90,-40)" x2="0" y2="40" stroke="#ddd" stroke-width="1" opacity="1"/><line transform="translate(120,-40)" x2="0" y2="40" stroke="#ddd" stroke-width="1" opacity="1"/><line transform="translate(150,-40)" x2="0" y2="40" stroke="#ddd" stroke-width="1" opacity="1"/><line transform="translate(180,-40)" x2="0" y2="40" stroke="#ddd" stroke-width="1" opacity="1"/><line transform="translate(210,-40)" x2="0" y2="40" stroke="#ddd" stroke-width="1" opacity="1"/><line transform="translate(240,-40)" x2="0" y2="40" stroke="#ddd" stroke-width="1" opacity="1"/><line transform="translate(270,-40)" x2="0" y2="40" stroke="#ddd" stroke-width="1" opacity="1"/><line transform="translate(300,-40)" x2="0" y2="40" stroke="#ddd" stroke-width="1" opacity="1"/></g></g><path class="foreground" aria-hidden="true" d="" pointer-events="none" display="none"/></g></g><g class="mark-group role-axis" aria-hidden="true"><g transform="translate(0.5,0.5)"><path class="background" aria-hidden="true" d="M0,0h0v0h0Z" pointer-events="none"/><g><g class="mark-rule role-axis-grid" pointer-events="none"><line transform="translate(0,40)" x2="300" y2="0" stroke="#ddd" stroke-width="1" opacity="1"/><line transform="translate(0,0)" x2="300" y2="0" stroke="#ddd" stroke-width="1" opacity="1"/></g></g><path class="foreground" aria-hidden="true" d="" pointer-events="none" display="none"/></g></g><g class="mark-area role-mark child_marks" role="graphics-object" aria-roledescription="area mark container"><path aria-label="percent of pareto confs identified: 0; density: 0.355919557743" role="graphics-symbol" aria-roledescription="area mark" d="M0,38.576L1.5,38.577L3,38.578L4.5,38.58L6,38.583L7.5,38.586L9,38.591L10.5,38.596L12,38.602L13.5,38.608L15,38.616L16.5,38.624L18,38.633L19.5,38.643L21,38.653L22.5,38.664L24,38.675L25.5,38.688L27,38.701L28.5,38.714L30,38.728L31.5,38.743L33,38.758L34.5,38.773L36,38.79L37.5,38.806L39,38.823L40.5,38.84L42,38.858L43.5,38.876L45,38.895L46.5,38.913L48,38.932L49.5,38.952L51,38.971L52.5,38.991L54,39.01L55.5,39.03L57,39.05L58.5,39.07L60,39.09L61.5,39.11L63,39.131L64.5,39.151L66,39.171L67.5,39.19L69,39.21L70.5,39.23L72,39.249L73.5,39.269L75,39.288L76.5,39.307L78,39.325L79.5,39.343L81,39.361L82.5,39.379L84,39.396L85.5,39.413L87,39.43L88.5,39.446L90,39.462L91.5,39.477L93,39.492L94.5,39.507L96,39.52L97.5,39.534L99,39.547L100.5,39.559L102,39.571L103.5,39.582L105,39.593L106.5,39.603L108,39.612L109.5,39.621L111,39.629L112.5,39.636L114,39.643L115.5,39.649L117,39.654L118.5,39.659L120,39.662L121.5,39.665L123,39.668L124.5,39.669L126,39.67L127.5,39.67L129,39.668L130.5,39.666L132,39.664L133.5,39.66L135,39.655L136.5,39.649L138,39.643L139.5,39.635L141,39.627L142.5,39.617L144,39.606L145.5,39.594L147,39.581L148.5,39.567L150,39.552L151.5,39.535L153,39.518L154.5,39.499L156,39.479L157.5,39.457L159,39.435L160.5,39.411L162,39.385L163.5,39.358L165,39.33L166.5,39.301L168,39.27L169.5,39.237L171,39.203L172.5,39.168L174,39.131L175.5,39.092L177,39.052L178.5,39.01L180,38.967L181.5,38.922L183,38.876L184.5,38.828L186,38.778L187.5,38.727L189,38.674L190.5,38.62L192,38.563L193.5,38.506L195,38.446L196.5,38.385L198,38.323L199.5,38.258L201,38.193L202.5,38.125L204,38.057L205.5,37.986L207,37.915L208.5,37.842L210,37.767L211.5,37.691L213,37.614L214.5,37.536L216,37.456L217.5,37.375L219,37.294L220.5,37.211L222,37.127L223.5,37.042L225,36.957L226.5,36.871L228,36.784L229.5,36.696L231,36.609L232.5,36.52L234,36.432L235.5,36.343L237,36.254L238.5,36.165L240,36.076L241.5,35.988L243,35.899L244.5,35.812L246,35.724L247.5,35.638L249,35.552L250.5,35.467L252,35.382L253.5,35.299L255,35.218L256.5,35.137L258,35.058L259.5,34.981L261,34.905L262.5,34.831L264,34.759L265.5,34.689L267,34.62L268.5,34.555L270,34.491L271.5,34.43L273,34.371L274.5,34.315L276,34.262L277.5,34.211L279,34.164L280.5,34.119L282,34.077L283.5,34.039L285,34.003L286.5,33.971L288,33.942L289.5,33.916L291,33.894L292.5,33.875L294,33.859L295.5,33.847L297,33.838L298.5,33.833L300,33.831L300,40L298.5,40L297,40L295.5,40L294,40L292.5,40L291,40L289.5,40L288,40L286.5,40L285,40L283.5,40L282,40L280.5,40L279,40L277.5,40L276,40L274.5,40L273,40L271.5,40L270,40L268.5,40L267,40L265.5,40L264,40L262.5,40L261,40L259.5,40L258,40L256.5,40L255,40L253.5,40L252,40L250.5,40L249,40L247.5,40L246,40L244.5,40L243,40L241.5,40L240,40L238.5,40L237,40L235.5,40L234,40L232.5,40L231,40L229.5,40L228,40L226.5,40L225,40L223.5,40L222,40L220.5,40L219,40L217.5,40L216,40L214.5,40L213,40L211.5,40L210,40L208.5,40L207,40L205.5,40L204,40L202.5,40L201,40L199.5,40L198,40L196.5,40L195,40L193.5,40L192,40L190.5,40L189,40L187.5,40L186,40L184.5,40L183,40L181.5,40L180,40L178.5,40L177,40L175.5,40L174,40L172.5,40L171,40L169.5,40L168,40L166.5,40L165,40L163.5,40L162,40L160.5,40L159,40L157.5,40L156,40L154.5,40L153,40L151.5,40L150,40L148.5,40L147,40L145.5,40L144,40L142.5,40L141,40L139.5,40L138,40L136.5,40L135,40L133.5,40L132,40L130.5,40L129,40L127.5,40L126,40L124.5,40L123,40L121.5,40L120,40L118.5,40L117,40L115.5,40L114,40L112.5,40L111,40L109.5,40L108,40L106.5,40L105,40L103.5,40L102,40L100.5,40L99,40L97.5,40L96,40L94.5,40L93,40L91.5,40L90,40L88.5,40L87,40L85.5,40L84,40L82.5,40L81,40L79.5,40L78,40L76.5,40L75,40L73.5,40L72,40L70.5,40L69,40L67.5,40L66,40L64.5,40L63,40L61.5,40L60,40L58.5,40L57,40L55.5,40L54,40L52.5,40L51,40L49.5,40L48,40L46.5,40L45,40L43.5,40L42,40L40.5,40L39,40L37.5,40L36,40L34.5,40L33,40L31.5,40L30,40L28.5,40L27,40L25.5,40L24,40L22.5,40L21,40L19.5,40L18,40L16.5,40L15,40L13.5,40L12,40L10.5,40L9,40L7.5,40L6,40L4.5,40L3,40L1.5,40L0,40Z" fill="#4c78a8"/></g></g><path class="foreground" aria-hidden="true" d="" display="none"/></g><g transform="translate(0,252)"><path class="background" aria-hidden="true" d="M0.5,0.5h300v40h-300Z" stroke="#ddd"/><g><g class="mark-group role-axis" aria-hidden="true"><g transform="translate(0.5,40.5)"><path class="background" aria-hidden="true" d="M0,0h0v0h0Z" pointer-events="none"/><g><g class="mark-rule role-axis-grid" pointer-events="none"><line transform="translate(0,-40)" x2="0" y2="40" stroke="#ddd" stroke-width="1" opacity="1"/><line transform="translate(30,-40)" x2="0" y2="40" stroke="#ddd" stroke-width="1" opacity="1"/><line transform="translate(60,-40)" x2="0" y2="40" stroke="#ddd" stroke-width="1" opacity="1"/><line transform="translate(90,-40)" x2="0" y2="40" stroke="#ddd" stroke-width="1" opacity="1"/><line transform="translate(120,-40)" x2="0" y2="40" stroke="#ddd" stroke-width="1" opacity="1"/><line transform="translate(150,-40)" x2="0" y2="40" stroke="#ddd" stroke-width="1" opacity="1"/><line transform="translate(180,-40)" x2="0" y2="40" stroke="#ddd" stroke-width="1" opacity="1"/><line transform="translate(210,-40)" x2="0" y2="40" stroke="#ddd" stroke-width="1" opacity="1"/><line transform="translate(240,-40)" x2="0" y2="40" stroke="#ddd" stroke-width="1" opacity="1"/><line transform="translate(270,-40)" x2="0" y2="40" stroke="#ddd" stroke-width="1" opacity="1"/><line transform="translate(300,-40)" x2="0" y2="40" stroke="#ddd" stroke-width="1" opacity="1"/></g></g><path class="foreground" aria-hidden="true" d="" pointer-events="none" display="none"/></g></g><g class="mark-group role-axis" aria-hidden="true"><g transform="translate(0.5,0.5)"><path class="background" aria-hidden="true" d="M0,0h0v0h0Z" pointer-events="none"/><g><g class="mark-rule role-axis-grid" pointer-events="none"><line transform="translate(0,40)" x2="300" y2="0" stroke="#ddd" stroke-width="1" opacity="1"/><line transform="translate(0,0)" x2="300" y2="0" stroke="#ddd" stroke-width="1" opacity="1"/></g></g><path class="foreground" aria-hidden="true" d="" pointer-events="none" display="none"/></g></g><g class="mark-area role-mark child_marks" role="graphics-object" aria-roledescription="area mark container"><path aria-label="percent of pareto confs identified: 0; density: 0.378242445098" role="graphics-symbol" aria-roledescription="area mark" d="M0,38.487L1.5,38.504L3,38.555L4.5,38.636L6,38.741L7.5,38.865L9,39L10.5,39.139L12,39.276L13.5,39.404L15,39.521L16.5,39.624L18,39.711L19.5,39.784L21,39.841L22.5,39.886L24,39.92L25.5,39.946L27,39.964L28.5,39.976L30,39.985L31.5,39.991L33,39.994L34.5,39.997L36,39.998L37.5,39.999L39,39.999L40.5,40L42,40L43.5,40L45,40L46.5,40L48,40L49.5,40L51,40L52.5,40L54,40L55.5,40L57,40L58.5,40L60,40L61.5,40L63,40L64.5,40L66,40L67.5,40L69,40L70.5,40L72,40L73.5,40L75,40L76.5,40L78,40L79.5,40L81,40L82.5,40L84,40L85.5,40L87,40L88.5,40L90,40L91.5,40L93,40L94.5,40L96,40L97.5,40L99,40L100.5,40L102,40L103.5,40L105,40L106.5,40L108,40L109.5,40L111,40L112.5,40L114,40L115.5,40L117,40L118.5,40L120,40L121.5,40L123,40L124.5,40L126,40L127.5,40L129,40L130.5,40L132,40L133.5,40L135,40L136.5,40L138,40L139.5,40L141,40L142.5,40L144,40L145.5,40L147,40L148.5,40L150,40L151.5,40L153,40L154.5,40L156,39.999L157.5,39.999L159,39.998L160.5,39.996L162,39.993L163.5,39.988L165,39.98L166.5,39.966L168,39.944L169.5,39.909L171,39.856L172.5,39.779L174,39.666L175.5,39.508L177,39.292L178.5,39.004L180,38.631L181.5,38.16L183,37.584L184.5,36.9L186,36.113L187.5,35.237L189,34.296L190.5,33.324L192,32.365L193.5,31.467L195,30.68L196.5,30.052L198,29.624L199.5,29.423L201,29.463L202.5,29.742L204,30.241L205.5,30.927L207,31.757L208.5,32.681L210,33.649L211.5,34.615L213,35.537L214.5,36.386L216,37.14L217.5,37.788L219,38.328L220.5,38.765L222,39.109L223.5,39.371L225,39.567L226.5,39.708L228,39.808L229.5,39.876L231,39.922L232.5,39.952L234,39.971L235.5,39.983L237,39.99L238.5,39.995L240,39.997L241.5,39.998L243,39.999L244.5,40L246,40L247.5,40L249,40L250.5,40L252,40L253.5,39.999L255,39.999L256.5,39.998L258,39.996L259.5,39.992L261,39.985L262.5,39.973L264,39.952L265.5,39.917L267,39.861L268.5,39.773L270,39.636L271.5,39.43L273,39.127L274.5,38.694L276,38.091L277.5,37.273L279,36.193L280.5,34.806L282,33.074L283.5,30.976L285,28.51L286.5,25.702L288,22.613L289.5,19.337L291,16.004L292.5,12.766L294,9.794L295.5,7.261L297,5.322L298.5,4.104L300,3.689L300,40L298.5,40L297,40L295.5,40L294,40L292.5,40L291,40L289.5,40L288,40L286.5,40L285,40L283.5,40L282,40L280.5,40L279,40L277.5,40L276,40L274.5,40L273,40L271.5,40L270,40L268.5,40L267,40L265.5,40L264,40L262.5,40L261,40L259.5,40L258,40L256.5,40L255,40L253.5,40L252,40L250.5,40L249,40L247.5,40L246,40L244.5,40L243,40L241.5,40L240,40L238.5,40L237,40L235.5,40L234,40L232.5,40L231,40L229.5,40L228,40L226.5,40L225,40L223.5,40L222,40L220.5,40L219,40L217.5,40L216,40L214.5,40L213,40L211.5,40L210,40L208.5,40L207,40L205.5,40L204,40L202.5,40L201,40L199.5,40L198,40L196.5,40L195,40L193.5,40L192,40L190.5,40L189,40L187.5,40L186,40L184.5,40L183,40L181.5,40L180,40L178.5,40L177,40L175.5,40L174,40L172.5,40L171,40L169.5,40L168,40L166.5,40L165,40L163.5,40L162,40L160.5,40L159,40L157.5,40L156,40L154.5,40L153,40L151.5,40L150,40L148.5,40L147,40L145.5,40L144,40L142.5,40L141,40L139.5,40L138,40L136.5,40L135,40L133.5,40L132,40L130.5,40L129,40L127.5,40L126,40L124.5,40L123,40L121.5,40L120,40L118.5,40L117,40L115.5,40L114,40L112.5,40L111,40L109.5,40L108,40L106.5,40L105,40L103.5,40L102,40L100.5,40L99,40L97.5,40L96,40L94.5,40L93,40L91.5,40L90,40L88.5,40L87,40L85.5,40L84,40L82.5,40L81,40L79.5,40L78,40L76.5,40L75,40L73.5,40L72,40L70.5,40L69,40L67.5,40L66,40L64.5,40L63,40L61.5,40L60,40L58.5,40L57,40L55.5,40L54,40L52.5,40L51,40L49.5,40L48,40L46.5,40L45,40L43.5,40L42,40L40.5,40L39,40L37.5,40L36,40L34.5,40L33,40L31.5,40L30,40L28.5,40L27,40L25.5,40L24,40L22.5,40L21,40L19.5,40L18,40L16.5,40L15,40L13.5,40L12,40L10.5,40L9,40L7.5,40L6,40L4.5,40L3,40L1.5,40L0,40Z" fill="#4c78a8"/></g></g><path class="foreground" aria-hidden="true" d="" display="none"/></g><g transform="translate(0,294)"><path class="background" aria-hidden="true" d="M0.5,0.5h300v40h-300Z" stroke="#ddd"/><g><g class="mark-group role-axis" aria-hidden="true"><g transform="translate(0.5,40.5)"><path class="background" aria-hidden="true" d="M0,0h0v0h0Z" pointer-events="none"/><g><g class="mark-rule role-axis-grid" pointer-events="none"><line transform="translate(0,-40)" x2="0" y2="40" stroke="#ddd" stroke-width="1" opacity="1"/><line transform="translate(30,-40)" x2="0" y2="40" stroke="#ddd" stroke-width="1" opacity="1"/><line transform="translate(60,-40)" x2="0" y2="40" stroke="#ddd" stroke-width="1" opacity="1"/><line transform="translate(90,-40)" x2="0" y2="40" stroke="#ddd" stroke-width="1" opacity="1"/><line transform="translate(120,-40)" x2="0" y2="40" stroke="#ddd" stroke-width="1" opacity="1"/><line transform="translate(150,-40)" x2="0" y2="40" stroke="#ddd" stroke-width="1" opacity="1"/><line transform="translate(180,-40)" x2="0" y2="40" stroke="#ddd" stroke-width="1" opacity="1"/><line transform="translate(210,-40)" x2="0" y2="40" stroke="#ddd" stroke-width="1" opacity="1"/><line transform="translate(240,-40)" x2="0" y2="40" stroke="#ddd" stroke-width="1" opacity="1"/><line transform="translate(270,-40)" x2="0" y2="40" stroke="#ddd" stroke-width="1" opacity="1"/><line transform="translate(300,-40)" x2="0" y2="40" stroke="#ddd" stroke-width="1" opacity="1"/></g></g><path class="foreground" aria-hidden="true" d="" pointer-events="none" display="none"/></g></g><g class="mark-group role-axis" aria-hidden="true"><g transform="translate(0.5,0.5)"><path class="background" aria-hidden="true" d="M0,0h0v0h0Z" pointer-events="none"/><g><g class="mark-rule role-axis-grid" pointer-events="none"><line transform="translate(0,40)" x2="300" y2="0" stroke="#ddd" stroke-width="1" opacity="1"/><line transform="translate(0,0)" x2="300" y2="0" stroke="#ddd" stroke-width="1" opacity="1"/></g></g><path class="foreground" aria-hidden="true" d="" pointer-events="none" display="none"/></g></g><g class="mark-area role-mark child_marks" role="graphics-object" aria-roledescription="area mark container"><path aria-label="percent of pareto confs identified: 0; density: 0.366573776409" role="graphics-symbol" aria-roledescription="area mark" d="M0,38.534L1.5,38.535L3,38.538L4.5,38.544L6,38.552L7.5,38.563L9,38.576L10.5,38.59L12,38.607L13.5,38.626L15,38.647L16.5,38.67L18,38.694L19.5,38.72L21,38.747L22.5,38.776L24,38.806L25.5,38.837L27,38.869L28.5,38.902L30,38.935L31.5,38.969L33,39.003L34.5,39.037L36,39.071L37.5,39.105L39,39.139L40.5,39.173L42,39.206L43.5,39.238L45,39.27L46.5,39.301L48,39.331L49.5,39.36L51,39.388L52.5,39.414L54,39.439L55.5,39.463L57,39.485L58.5,39.506L60,39.525L61.5,39.542L63,39.558L64.5,39.572L66,39.584L67.5,39.594L69,39.602L70.5,39.608L72,39.613L73.5,39.615L75,39.616L76.5,39.614L78,39.61L79.5,39.605L81,39.597L82.5,39.588L84,39.576L85.5,39.563L87,39.548L88.5,39.53L90,39.511L91.5,39.49L93,39.468L94.5,39.443L96,39.417L97.5,39.389L99,39.359L100.5,39.328L102,39.295L103.5,39.261L105,39.226L106.5,39.19L108,39.152L109.5,39.113L111,39.073L112.5,39.033L114,38.991L115.5,38.949L117,38.906L118.5,38.863L120,38.82L121.5,38.776L123,38.733L124.5,38.689L126,38.645L127.5,38.602L129,38.559L130.5,38.517L132,38.475L133.5,38.434L135,38.394L136.5,38.354L138,38.316L139.5,38.279L141,38.243L142.5,38.209L144,38.175L145.5,38.144L147,38.114L148.5,38.085L150,38.058L151.5,38.033L153,38.009L154.5,37.987L156,37.968L157.5,37.949L159,37.933L160.5,37.918L162,37.906L163.5,37.895L165,37.886L166.5,37.878L168,37.872L169.5,37.868L171,37.866L172.5,37.865L174,37.866L175.5,37.868L177,37.871L178.5,37.876L180,37.881L181.5,37.888L183,37.896L184.5,37.904L186,37.914L187.5,37.923L189,37.933L190.5,37.944L192,37.954L193.5,37.964L195,37.974L196.5,37.984L198,37.993L199.5,38L201,38.007L202.5,38.012L204,38.016L205.5,38.017L207,38.017L208.5,38.014L210,38.008L211.5,37.999L213,37.987L214.5,37.971L216,37.951L217.5,37.927L219,37.899L220.5,37.865L222,37.827L223.5,37.783L225,37.734L226.5,37.679L228,37.617L229.5,37.55L231,37.476L232.5,37.395L234,37.307L235.5,37.212L237,37.111L238.5,37.002L240,36.886L241.5,36.763L243,36.633L244.5,36.496L246,36.353L247.5,36.203L249,36.047L250.5,35.884L252,35.716L253.5,35.543L255,35.365L256.5,35.183L258,34.997L259.5,34.808L261,34.616L262.5,34.422L264,34.227L265.5,34.032L267,33.837L268.5,33.643L270,33.45L271.5,33.261L273,33.074L274.5,32.892L276,32.716L277.5,32.545L279,32.381L280.5,32.224L282,32.076L283.5,31.937L285,31.808L286.5,31.689L288,31.581L289.5,31.485L291,31.4L292.5,31.329L294,31.271L295.5,31.226L297,31.194L298.5,31.177L300,31.173L300,40L298.5,40L297,40L295.5,40L294,40L292.5,40L291,40L289.5,40L288,40L286.5,40L285,40L283.5,40L282,40L280.5,40L279,40L277.5,40L276,40L274.5,40L273,40L271.5,40L270,40L268.5,40L267,40L265.5,40L264,40L262.5,40L261,40L259.5,40L258,40L256.5,40L255,40L253.5,40L252,40L250.5,40L249,40L247.5,40L246,40L244.5,40L243,40L241.5,40L240,40L238.5,40L237,40L235.5,40L234,40L232.5,40L231,40L229.5,40L228,40L226.5,40L225,40L223.5,40L222,40L220.5,40L219,40L217.5,40L216,40L214.5,40L213,40L211.5,40L210,40L208.5,40L207,40L205.5,40L204,40L202.5,40L201,40L199.5,40L198,40L196.5,40L195,40L193.5,40L192,40L190.5,40L189,40L187.5,40L186,40L184.5,40L183,40L181.5,40L180,40L178.5,40L177,40L175.5,40L174,40L172.5,40L171,40L169.5,40L168,40L166.5,40L165,40L163.5,40L162,40L160.5,40L159,40L157.5,40L156,40L154.5,40L153,40L151.5,40L150,40L148.5,40L147,40L145.5,40L144,40L142.5,40L141,40L139.5,40L138,40L136.5,40L135,40L133.5,40L132,40L130.5,40L129,40L127.5,40L126,40L124.5,40L123,40L121.5,40L120,40L118.5,40L117,40L115.5,40L114,40L112.5,40L111,40L109.5,40L108,40L106.5,40L105,40L103.5,40L102,40L100.5,40L99,40L97.5,40L96,40L94.5,40L93,40L91.5,40L90,40L88.5,40L87,40L85.5,40L84,40L82.5,40L81,40L79.5,40L78,40L76.5,40L75,40L73.5,40L72,40L70.5,40L69,40L67.5,40L66,40L64.5,40L63,40L61.5,40L60,40L58.5,40L57,40L55.5,40L54,40L52.5,40L51,40L49.5,40L48,40L46.5,40L45,40L43.5,40L42,40L40.5,40L39,40L37.5,40L36,40L34.5,40L33,40L31.5,40L30,40L28.5,40L27,40L25.5,40L24,40L22.5,40L21,40L19.5,40L18,40L16.5,40L15,40L13.5,40L12,40L10.5,40L9,40L7.5,40L6,40L4.5,40L3,40L1.5,40L0,40Z" fill="#4c78a8"/></g></g><path class="foreground" aria-hidden="true" d="" display="none"/></g><g transform="translate(0,336)"><path class="background" aria-hidden="true" d="M0.5,0.5h300v40h-300Z" stroke="#ddd"/><g><g class="mark-group role-axis" aria-hidden="true"><g transform="translate(0.5,40.5)"><path class="background" aria-hidden="true" d="M0,0h0v0h0Z" pointer-events="none"/><g><g class="mark-rule role-axis-grid" pointer-events="none"><line transform="translate(0,-40)" x2="0" y2="40" stroke="#ddd" stroke-width="1" opacity="1"/><line transform="translate(30,-40)" x2="0" y2="40" stroke="#ddd" stroke-width="1" opacity="1"/><line transform="translate(60,-40)" x2="0" y2="40" stroke="#ddd" stroke-width="1" opacity="1"/><line transform="translate(90,-40)" x2="0" y2="40" stroke="#ddd" stroke-width="1" opacity="1"/><line transform="translate(120,-40)" x2="0" y2="40" stroke="#ddd" stroke-width="1" opacity="1"/><line transform="translate(150,-40)" x2="0" y2="40" stroke="#ddd" stroke-width="1" opacity="1"/><line transform="translate(180,-40)" x2="0" y2="40" stroke="#ddd" stroke-width="1" opacity="1"/><line transform="translate(210,-40)" x2="0" y2="40" stroke="#ddd" stroke-width="1" opacity="1"/><line transform="translate(240,-40)" x2="0" y2="40" stroke="#ddd" stroke-width="1" opacity="1"/><line transform="translate(270,-40)" x2="0" y2="40" stroke="#ddd" stroke-width="1" opacity="1"/><line transform="translate(300,-40)" x2="0" y2="40" stroke="#ddd" stroke-width="1" opacity="1"/></g></g><path class="foreground" aria-hidden="true" d="" pointer-events="none" display="none"/></g></g><g class="mark-group role-axis" aria-hidden="true"><g transform="translate(0.5,0.5)"><path class="background" aria-hidden="true" d="M0,0h0v0h0Z" pointer-events="none"/><g><g class="mark-rule role-axis-grid" pointer-events="none"><line transform="translate(0,40)" x2="300" y2="0" stroke="#ddd" stroke-width="1" opacity="1"/><line transform="translate(0,0)" x2="300" y2="0" stroke="#ddd" stroke-width="1" opacity="1"/></g></g><path class="foreground" aria-hidden="true" d="" pointer-events="none" display="none"/></g></g><g class="mark-area role-mark child_marks" role="graphics-object" aria-roledescription="area mark container"><path aria-label="percent of pareto confs identified: 0; density: 0.567366053603" role="graphics-symbol" aria-roledescription="area mark" d="M0,37.731L1.5,37.732L3,37.737L4.5,37.745L6,37.756L7.5,37.771L9,37.789L10.5,37.809L12,37.833L13.5,37.859L15,37.888L16.5,37.92L18,37.954L19.5,37.99L21,38.029L22.5,38.069L24,38.112L25.5,38.156L27,38.202L28.5,38.249L30,38.298L31.5,38.347L33,38.397L34.5,38.448L36,38.5L37.5,38.551L39,38.603L40.5,38.655L42,38.707L43.5,38.759L45,38.81L46.5,38.861L48,38.911L49.5,38.96L51,39.009L52.5,39.056L54,39.103L55.5,39.148L57,39.192L58.5,39.234L60,39.275L61.5,39.315L63,39.353L64.5,39.39L66,39.425L67.5,39.459L69,39.49L70.5,39.521L72,39.549L73.5,39.576L75,39.601L76.5,39.624L78,39.646L79.5,39.666L81,39.684L82.5,39.701L84,39.716L85.5,39.729L87,39.741L88.5,39.75L90,39.758L91.5,39.765L93,39.769L94.5,39.772L96,39.773L97.5,39.773L99,39.77L100.5,39.766L102,39.76L103.5,39.752L105,39.743L106.5,39.731L108,39.718L109.5,39.702L111,39.685L112.5,39.666L114,39.644L115.5,39.62L117,39.595L118.5,39.567L120,39.537L121.5,39.505L123,39.47L124.5,39.433L126,39.394L127.5,39.352L129,39.309L130.5,39.263L132,39.214L133.5,39.163L135,39.11L136.5,39.055L138,38.997L139.5,38.937L141,38.875L142.5,38.811L144,38.745L145.5,38.677L147,38.607L148.5,38.535L150,38.462L151.5,38.388L153,38.312L154.5,38.235L156,38.157L157.5,38.078L159,37.999L160.5,37.919L162,37.839L163.5,37.759L165,37.679L166.5,37.6L168,37.521L169.5,37.443L171,37.366L172.5,37.291L174,37.217L175.5,37.145L177,37.074L178.5,37.006L180,36.94L181.5,36.876L183,36.815L184.5,36.757L186,36.702L187.5,36.649L189,36.6L190.5,36.553L192,36.51L193.5,36.47L195,36.433L196.5,36.4L198,36.369L199.5,36.341L201,36.317L202.5,36.295L204,36.275L205.5,36.258L207,36.244L208.5,36.231L210,36.22L211.5,36.211L213,36.203L214.5,36.195L216,36.189L217.5,36.183L219,36.177L220.5,36.171L222,36.164L223.5,36.156L225,36.147L226.5,36.136L228,36.124L229.5,36.109L231,36.092L232.5,36.072L234,36.049L235.5,36.023L237,35.994L238.5,35.961L240,35.924L241.5,35.883L243,35.838L244.5,35.79L246,35.737L247.5,35.68L249,35.62L250.5,35.555L252,35.487L253.5,35.415L255,35.339L256.5,35.261L258,35.179L259.5,35.095L261,35.009L262.5,34.921L264,34.831L265.5,34.741L267,34.649L268.5,34.558L270,34.466L271.5,34.376L273,34.286L274.5,34.199L276,34.114L277.5,34.031L279,33.952L280.5,33.877L282,33.806L283.5,33.739L285,33.678L286.5,33.622L288,33.573L289.5,33.529L291,33.493L292.5,33.463L294,33.441L295.5,33.427L297,33.42L298.5,33.421L300,33.431L300,40L298.5,40L297,40L295.5,40L294,40L292.5,40L291,40L289.5,40L288,40L286.5,40L285,40L283.5,40L282,40L280.5,40L279,40L277.5,40L276,40L274.5,40L273,40L271.5,40L270,40L268.5,40L267,40L265.5,40L264,40L262.5,40L261,40L259.5,40L258,40L256.5,40L255,40L253.5,40L252,40L250.5,40L249,40L247.5,40L246,40L244.5,40L243,40L241.5,40L240,40L238.5,40L237,40L235.5,40L234,40L232.5,40L231,40L229.5,40L228,40L226.5,40L225,40L223.5,40L222,40L220.5,40L219,40L217.5,40L216,40L214.5,40L213,40L211.5,40L210,40L208.5,40L207,40L205.5,40L204,40L202.5,40L201,40L199.5,40L198,40L196.5,40L195,40L193.5,40L192,40L190.5,40L189,40L187.5,40L186,40L184.5,40L183,40L181.5,40L180,40L178.5,40L177,40L175.5,40L174,40L172.5,40L171,40L169.5,40L168,40L166.5,40L165,40L163.5,40L162,40L160.5,40L159,40L157.5,40L156,40L154.5,40L153,40L151.5,40L150,40L148.5,40L147,40L145.5,40L144,40L142.5,40L141,40L139.5,40L138,40L136.5,40L135,40L133.5,40L132,40L130.5,40L129,40L127.5,40L126,40L124.5,40L123,40L121.5,40L120,40L118.5,40L117,40L115.5,40L114,40L112.5,40L111,40L109.5,40L108,40L106.5,40L105,40L103.5,40L102,40L100.5,40L99,40L97.5,40L96,40L94.5,40L93,40L91.5,40L90,40L88.5,40L87,40L85.5,40L84,40L82.5,40L81,40L79.5,40L78,40L76.5,40L75,40L73.5,40L72,40L70.5,40L69,40L67.5,40L66,40L64.5,40L63,40L61.5,40L60,40L58.5,40L57,40L55.5,40L54,40L52.5,40L51,40L49.5,40L48,40L46.5,40L45,40L43.5,40L42,40L40.5,40L39,40L37.5,40L36,40L34.5,40L33,40L31.5,40L30,40L28.5,40L27,40L25.5,40L24,40L22.5,40L21,40L19.5,40L18,40L16.5,40L15,40L13.5,40L12,40L10.5,40L9,40L7.5,40L6,40L4.5,40L3,40L1.5,40L0,40Z" fill="#4c78a8"/></g></g><path class="foreground" aria-hidden="true" d="" display="none"/></g><g transform="translate(0,378)"><path class="background" aria-hidden="true" d="M0.5,0.5h300v40h-300Z" stroke="#ddd"/><g><g class="mark-group role-axis" aria-hidden="true"><g transform="translate(0.5,40.5)"><path class="background" aria-hidden="true" d="M0,0h0v0h0Z" pointer-events="none"/><g><g class="mark-rule role-axis-grid" pointer-events="none"><line transform="translate(0,-40)" x2="0" y2="40" stroke="#ddd" stroke-width="1" opacity="1"/><line transform="translate(30,-40)" x2="0" y2="40" stroke="#ddd" stroke-width="1" opacity="1"/><line transform="translate(60,-40)" x2="0" y2="40" stroke="#ddd" stroke-width="1" opacity="1"/><line transform="translate(90,-40)" x2="0" y2="40" stroke="#ddd" stroke-width="1" opacity="1"/><line transform="translate(120,-40)" x2="0" y2="40" stroke="#ddd" stroke-width="1" opacity="1"/><line transform="translate(150,-40)" x2="0" y2="40" stroke="#ddd" stroke-width="1" opacity="1"/><line transform="translate(180,-40)" x2="0" y2="40" stroke="#ddd" stroke-width="1" opacity="1"/><line transform="translate(210,-40)" x2="0" y2="40" stroke="#ddd" stroke-width="1" opacity="1"/><line transform="translate(240,-40)" x2="0" y2="40" stroke="#ddd" stroke-width="1" opacity="1"/><line transform="translate(270,-40)" x2="0" y2="40" stroke="#ddd" stroke-width="1" opacity="1"/><line transform="translate(300,-40)" x2="0" y2="40" stroke="#ddd" stroke-width="1" opacity="1"/></g></g><path class="foreground" aria-hidden="true" d="" pointer-events="none" display="none"/></g></g><g class="mark-group role-axis" aria-hidden="true"><g transform="translate(0.5,0.5)"><path class="background" aria-hidden="true" d="M0,0h0v0h0Z" pointer-events="none"/><g><g class="mark-rule role-axis-grid" pointer-events="none"><line transform="translate(0,40)" x2="300" y2="0" stroke="#ddd" stroke-width="1" opacity="1"/><line transform="translate(0,0)" x2="300" y2="0" stroke="#ddd" stroke-width="1" opacity="1"/></g></g><path class="foreground" aria-hidden="true" d="" pointer-events="none" display="none"/></g></g><g class="mark-area role-mark child_marks" role="graphics-object" aria-roledescription="area mark container"><path aria-label="percent of pareto confs identified: 0; density: 0.503529222199" role="graphics-symbol" aria-roledescription="area mark" d="M0,37.986L1.5,37.98L3,37.974L4.5,37.97L6,37.966L7.5,37.963L9,37.96L10.5,37.959L12,37.958L13.5,37.958L15,37.959L16.5,37.961L18,37.963L19.5,37.966L21,37.969L22.5,37.974L24,37.979L25.5,37.984L27,37.99L28.5,37.997L30,38.004L31.5,38.012L33,38.021L34.5,38.03L36,38.039L37.5,38.049L39,38.059L40.5,38.07L42,38.081L43.5,38.092L45,38.104L46.5,38.116L48,38.129L49.5,38.141L51,38.154L52.5,38.167L54,38.181L55.5,38.194L57,38.208L58.5,38.221L60,38.235L61.5,38.249L63,38.263L64.5,38.277L66,38.291L67.5,38.305L69,38.319L70.5,38.333L72,38.346L73.5,38.36L75,38.374L76.5,38.387L78,38.4L79.5,38.414L81,38.427L82.5,38.439L84,38.452L85.5,38.464L87,38.477L88.5,38.489L90,38.5L91.5,38.512L93,38.523L94.5,38.534L96,38.544L97.5,38.555L99,38.565L100.5,38.574L102,38.584L103.5,38.593L105,38.601L106.5,38.61L108,38.618L109.5,38.625L111,38.633L112.5,38.64L114,38.646L115.5,38.652L117,38.658L118.5,38.663L120,38.668L121.5,38.673L123,38.677L124.5,38.681L126,38.684L127.5,38.687L129,38.689L130.5,38.691L132,38.692L133.5,38.693L135,38.694L136.5,38.693L138,38.693L139.5,38.692L141,38.69L142.5,38.688L144,38.685L145.5,38.681L147,38.677L148.5,38.672L150,38.667L151.5,38.661L153,38.654L154.5,38.647L156,38.639L157.5,38.63L159,38.62L160.5,38.61L162,38.599L163.5,38.587L165,38.574L166.5,38.561L168,38.546L169.5,38.531L171,38.515L172.5,38.498L174,38.48L175.5,38.461L177,38.441L178.5,38.42L180,38.398L181.5,38.376L183,38.352L184.5,38.327L186,38.301L187.5,38.274L189,38.246L190.5,38.217L192,38.187L193.5,38.156L195,38.124L196.5,38.091L198,38.057L199.5,38.022L201,37.986L202.5,37.948L204,37.91L205.5,37.871L207,37.831L208.5,37.79L210,37.748L211.5,37.705L213,37.661L214.5,37.616L216,37.571L217.5,37.525L219,37.478L220.5,37.43L222,37.382L223.5,37.333L225,37.283L226.5,37.233L228,37.182L229.5,37.131L231,37.08L232.5,37.028L234,36.976L235.5,36.924L237,36.872L238.5,36.82L240,36.767L241.5,36.715L243,36.663L244.5,36.611L246,36.559L247.5,36.508L249,36.457L250.5,36.406L252,36.356L253.5,36.307L255,36.259L256.5,36.211L258,36.164L259.5,36.118L261,36.073L262.5,36.029L264,35.987L265.5,35.945L267,35.905L268.5,35.866L270,35.829L271.5,35.793L273,35.758L274.5,35.726L276,35.694L277.5,35.665L279,35.638L280.5,35.612L282,35.588L283.5,35.566L285,35.546L286.5,35.528L288,35.513L289.5,35.499L291,35.487L292.5,35.478L294,35.47L295.5,35.465L297,35.462L298.5,35.462L300,35.463L300,40L298.5,40L297,40L295.5,40L294,40L292.5,40L291,40L289.5,40L288,40L286.5,40L285,40L283.5,40L282,40L280.5,40L279,40L277.5,40L276,40L274.5,40L273,40L271.5,40L270,40L268.5,40L267,40L265.5,40L264,40L262.5,40L261,40L259.5,40L258,40L256.5,40L255,40L253.5,40L252,40L250.5,40L249,40L247.5,40L246,40L244.5,40L243,40L241.5,40L240,40L238.5,40L237,40L235.5,40L234,40L232.5,40L231,40L229.5,40L228,40L226.5,40L225,40L223.5,40L222,40L220.5,40L219,40L217.5,40L216,40L214.5,40L213,40L211.5,40L210,40L208.5,40L207,40L205.5,40L204,40L202.5,40L201,40L199.5,40L198,40L196.5,40L195,40L193.5,40L192,40L190.5,40L189,40L187.5,40L186,40L184.5,40L183,40L181.5,40L180,40L178.5,40L177,40L175.5,40L174,40L172.5,40L171,40L169.5,40L168,40L166.5,40L165,40L163.5,40L162,40L160.5,40L159,40L157.5,40L156,40L154.5,40L153,40L151.5,40L150,40L148.5,40L147,40L145.5,40L144,40L142.5,40L141,40L139.5,40L138,40L136.5,40L135,40L133.5,40L132,40L130.5,40L129,40L127.5,40L126,40L124.5,40L123,40L121.5,40L120,40L118.5,40L117,40L115.5,40L114,40L112.5,40L111,40L109.5,40L108,40L106.5,40L105,40L103.5,40L102,40L100.5,40L99,40L97.5,40L96,40L94.5,40L93,40L91.5,40L90,40L88.5,40L87,40L85.5,40L84,40L82.5,40L81,40L79.5,40L78,40L76.5,40L75,40L73.5,40L72,40L70.5,40L69,40L67.5,40L66,40L64.5,40L63,40L61.5,40L60,40L58.5,40L57,40L55.5,40L54,40L52.5,40L51,40L49.5,40L48,40L46.5,40L45,40L43.5,40L42,40L40.5,40L39,40L37.5,40L36,40L34.5,40L33,40L31.5,40L30,40L28.5,40L27,40L25.5,40L24,40L22.5,40L21,40L19.5,40L18,40L16.5,40L15,40L13.5,40L12,40L10.5,40L9,40L7.5,40L6,40L4.5,40L3,40L1.5,40L0,40Z" fill="#4c78a8"/></g></g><path class="foreground" aria-hidden="true" d="" display="none"/></g><g transform="translate(0,420)"><path class="background" aria-hidden="true" d="M0.5,0.5h300v40h-300Z" stroke="#ddd"/><g><g class="mark-group role-axis" aria-hidden="true"><g transform="translate(0.5,40.5)"><path class="background" aria-hidden="true" d="M0,0h0v0h0Z" pointer-events="none"/><g><g class="mark-rule role-axis-grid" pointer-events="none"><line transform="translate(0,-40)" x2="0" y2="40" stroke="#ddd" stroke-width="1" opacity="1"/><line transform="translate(30,-40)" x2="0" y2="40" stroke="#ddd" stroke-width="1" opacity="1"/><line transform="translate(60,-40)" x2="0" y2="40" stroke="#ddd" stroke-width="1" opacity="1"/><line transform="translate(90,-40)" x2="0" y2="40" stroke="#ddd" stroke-width="1" opacity="1"/><line transform="translate(120,-40)" x2="0" y2="40" stroke="#ddd" stroke-width="1" opacity="1"/><line transform="translate(150,-40)" x2="0" y2="40" stroke="#ddd" stroke-width="1" opacity="1"/><line transform="translate(180,-40)" x2="0" y2="40" stroke="#ddd" stroke-width="1" opacity="1"/><line transform="translate(210,-40)" x2="0" y2="40" stroke="#ddd" stroke-width="1" opacity="1"/><line transform="translate(240,-40)" x2="0" y2="40" stroke="#ddd" stroke-width="1" opacity="1"/><line transform="translate(270,-40)" x2="0" y2="40" stroke="#ddd" stroke-width="1" opacity="1"/><line transform="translate(300,-40)" x2="0" y2="40" stroke="#ddd" stroke-width="1" opacity="1"/></g></g><path class="foreground" aria-hidden="true" d="" pointer-events="none" display="none"/></g></g><g class="mark-group role-axis" aria-hidden="true"><g transform="translate(0.5,0.5)"><path class="background" aria-hidden="true" d="M0,0h0v0h0Z" pointer-events="none"/><g><g class="mark-rule role-axis-grid" pointer-events="none"><line transform="translate(0,40)" x2="300" y2="0" stroke="#ddd" stroke-width="1" opacity="1"/><line transform="translate(0,0)" x2="300" y2="0" stroke="#ddd" stroke-width="1" opacity="1"/></g></g><path class="foreground" aria-hidden="true" d="" pointer-events="none" display="none"/></g></g><g class="mark-area role-mark child_marks" role="graphics-object" aria-roledescription="area mark container"><path aria-label="percent of pareto confs identified: 0; density: 0.424413012912" role="graphics-symbol" aria-roledescription="area mark" d="M0,38.302L1.5,38.294L3,38.286L4.5,38.278L6,38.272L7.5,38.266L9,38.26L10.5,38.256L12,38.252L13.5,38.249L15,38.247L16.5,38.245L18,38.244L19.5,38.244L21,38.244L22.5,38.245L24,38.247L25.5,38.249L27,38.252L28.5,38.256L30,38.26L31.5,38.264L33,38.269L34.5,38.275L36,38.281L37.5,38.288L39,38.295L40.5,38.303L42,38.311L43.5,38.32L45,38.329L46.5,38.338L48,38.348L49.5,38.358L51,38.369L52.5,38.379L54,38.39L55.5,38.402L57,38.413L58.5,38.425L60,38.437L61.5,38.449L63,38.462L64.5,38.474L66,38.487L67.5,38.499L69,38.512L70.5,38.525L72,38.538L73.5,38.551L75,38.564L76.5,38.577L78,38.59L79.5,38.603L81,38.616L82.5,38.628L84,38.641L85.5,38.654L87,38.666L88.5,38.678L90,38.691L91.5,38.703L93,38.714L94.5,38.726L96,38.737L97.5,38.748L99,38.759L100.5,38.769L102,38.78L103.5,38.79L105,38.799L106.5,38.808L108,38.817L109.5,38.826L111,38.834L112.5,38.842L114,38.849L115.5,38.856L117,38.862L118.5,38.868L120,38.873L121.5,38.878L123,38.882L124.5,38.886L126,38.889L127.5,38.892L129,38.894L130.5,38.895L132,38.896L133.5,38.895L135,38.895L136.5,38.893L138,38.891L139.5,38.888L141,38.885L142.5,38.88L144,38.875L145.5,38.868L147,38.861L148.5,38.854L150,38.845L151.5,38.835L153,38.824L154.5,38.813L156,38.8L157.5,38.786L159,38.772L160.5,38.756L162,38.739L163.5,38.721L165,38.702L166.5,38.682L168,38.661L169.5,38.638L171,38.615L172.5,38.59L174,38.564L175.5,38.536L177,38.508L178.5,38.478L180,38.447L181.5,38.415L183,38.381L184.5,38.346L186,38.31L187.5,38.273L189,38.234L190.5,38.194L192,38.153L193.5,38.11L195,38.066L196.5,38.021L198,37.974L199.5,37.926L201,37.877L202.5,37.827L204,37.776L205.5,37.723L207,37.669L208.5,37.614L210,37.558L211.5,37.501L213,37.443L214.5,37.384L216,37.324L217.5,37.263L219,37.201L220.5,37.138L222,37.075L223.5,37.011L225,36.946L226.5,36.881L228,36.815L229.5,36.749L231,36.682L232.5,36.615L234,36.548L235.5,36.481L237,36.413L238.5,36.346L240,36.279L241.5,36.212L243,36.145L244.5,36.078L246,36.012L247.5,35.947L249,35.882L250.5,35.818L252,35.755L253.5,35.693L255,35.632L256.5,35.572L258,35.513L259.5,35.456L261,35.4L262.5,35.345L264,35.293L265.5,35.241L267,35.192L268.5,35.145L270,35.099L271.5,35.056L273,35.015L274.5,34.975L276,34.939L277.5,34.904L279,34.872L280.5,34.843L282,34.816L283.5,34.792L285,34.77L286.5,34.751L288,34.735L289.5,34.722L291,34.712L292.5,34.704L294,34.699L295.5,34.698L297,34.699L298.5,34.703L300,34.71L300,40L298.5,40L297,40L295.5,40L294,40L292.5,40L291,40L289.5,40L288,40L286.5,40L285,40L283.5,40L282,40L280.5,40L279,40L277.5,40L276,40L274.5,40L273,40L271.5,40L270,40L268.5,40L267,40L265.5,40L264,40L262.5,40L261,40L259.5,40L258,40L256.5,40L255,40L253.5,40L252,40L250.5,40L249,40L247.5,40L246,40L244.5,40L243,40L241.5,40L240,40L238.5,40L237,40L235.5,40L234,40L232.5,40L231,40L229.5,40L228,40L226.5,40L225,40L223.5,40L222,40L220.5,40L219,40L217.5,40L216,40L214.5,40L213,40L211.5,40L210,40L208.5,40L207,40L205.5,40L204,40L202.5,40L201,40L199.5,40L198,40L196.5,40L195,40L193.5,40L192,40L190.5,40L189,40L187.5,40L186,40L184.5,40L183,40L181.5,40L180,40L178.5,40L177,40L175.5,40L174,40L172.5,40L171,40L169.5,40L168,40L166.5,40L165,40L163.5,40L162,40L160.5,40L159,40L157.5,40L156,40L154.5,40L153,40L151.5,40L150,40L148.5,40L147,40L145.5,40L144,40L142.5,40L141,40L139.5,40L138,40L136.5,40L135,40L133.5,40L132,40L130.5,40L129,40L127.5,40L126,40L124.5,40L123,40L121.5,40L120,40L118.5,40L117,40L115.5,40L114,40L112.5,40L111,40L109.5,40L108,40L106.5,40L105,40L103.5,40L102,40L100.5,40L99,40L97.5,40L96,40L94.5,40L93,40L91.5,40L90,40L88.5,40L87,40L85.5,40L84,40L82.5,40L81,40L79.5,40L78,40L76.5,40L75,40L73.5,40L72,40L70.5,40L69,40L67.5,40L66,40L64.5,40L63,40L61.5,40L60,40L58.5,40L57,40L55.5,40L54,40L52.5,40L51,40L49.5,40L48,40L46.5,40L45,40L43.5,40L42,40L40.5,40L39,40L37.5,40L36,40L34.5,40L33,40L31.5,40L30,40L28.5,40L27,40L25.5,40L24,40L22.5,40L21,40L19.5,40L18,40L16.5,40L15,40L13.5,40L12,40L10.5,40L9,40L7.5,40L6,40L4.5,40L3,40L1.5,40L0,40Z" fill="#4c78a8"/></g></g><path class="foreground" aria-hidden="true" d="" display="none"/></g></g><g class="mark-group role-title"><g transform="translate(-72.4677734375,-22)"><path class="background" aria-hidden="true" d="M0,0h0v0h0Z" pointer-events="none"/><g><g class="mark-text role-title-text" role="graphics-symbol" aria-roledescription="title" aria-label="Title text 'Density of percent of pareto confs identified'" pointer-events="none"><text text-anchor="start" transform="translate(0,10)" font-family="sans-serif" font-size="13px" font-weight="bold" fill="#000" opacity="1">Density of percent of pareto confs identified</text></g></g><path class="foreground" aria-hidden="true" d="" pointer-events="none" display="none"/></g></g></g><path class="foreground" aria-hidden="true" d="" display="none"/></g></g></g></svg>