<svg xmlns="http://www.w3.org/2000/svg" xmlns:xlink="http://www.w3.org/1999/xlink" version="1.1" class="marks" width="350" height="337" viewBox="0 0 350 337"><rect width="350" height="337" fill="white"/><g fill="none" stroke-miterlimit="10" transform="translate(42,28)"><g class="mark-group role-frame root" role="graphics-object" aria-roledescription="group mark container"><g transform="translate(0,0)"><path class="background" aria-hidden="true" d="M0,0h300v0h-300Z"/><g><g class="mark-group role-scope concat_0_group" role="graphics-object" aria-roledescription="group mark container"><g transform="translate(0,0)"><path class="background" aria-hidden="true" d="M0.5,0.5h300v100h-300Z" stroke="#ddd"/><g><g class="mark-group role-axis" aria-hidden="true"><g transform="translate(0.5,100.5)"><path class="background" aria-hidden="true" d="M0,0h0v0h0Z" pointer-events="none"/><g><g class="mark-rule role-axis-grid" pointer-events="none"><line transform="translate(0,-100)" x2="0" y2="100" stroke="#ddd" stroke-width="1" opacity="1"/><line transform="translate(50,-100)" x2="0" y2="100" stroke="#ddd" stroke-width="1" opacity="1"/><line transform="translate(100,-100)" x2="0" y2="100" stroke="#ddd" stroke-width="1" opacity="1"/><line transform="translate(150,-100)" x2="0" y2="100" stroke="#ddd" stroke-width="1" opacity="1"/><line transform="translate(200,-100)" x2="0" y2="100" stroke="#ddd" stroke-width="1" opacity="1"/><line transform="translate(250,-100)" x2="0" y2="100" stroke="#ddd" stroke-width="1" opacity="1"/><line transform="translate(300,-100)" x2="0" y2="100" stroke="#ddd" stroke-width="1" opacity="1"/></g></g><path class="foreground" aria-hidden="true" d="" pointer-events="none" display="none"/></g></g><g class="mark-group role-axis" aria-hidden="true"><g transform="translate(0.5,0.5)"><path class="background" aria-hidden="true" d="M0,0h0v0h0Z" pointer-events="none"/><g><g class="mark-rule role-axis-grid" pointer-events="none"><line transform="translate(0,100)" x2="300" y2="0" stroke="#ddd" stroke-width="1" opacity="1"/><line transform="translate(0,75)" x2="300" y2="0" stroke="#ddd" stroke-width="1" opacity="1"/><line transform="translate(0,50)" x2="300" y2="0" stroke="#ddd" stroke-width="1" opacity="1"/><line transform="translate(0,25)" x2="300" y2="0" stroke="#ddd" stroke-width="1" opacity="1"/><line transform="translate(0,0)" x2="300" y2="0" stroke="#ddd" stroke-width="1" opacity="1"/></g></g><path class="foreground" aria-hidden="true" d="" pointer-events="none" display="none"/></g></g><g class="mark-group role-axis" role="graphics-symbol" aria-roledescription="axis" aria-label="X-axis titled 'log10(error(error estimate))' for a linear scale with values from −6 to 6"><g transform="translate(0.5,100.5)"><path class="background" aria-hidden="true" d="M0,0h0v0h0Z" pointer-events="none"/><g><g class="mark-rule role-axis-tick" pointer-events="none"><line transform="translate(0,0)" x2="0" y2="5" stroke="#888" stroke-width="1" opacity="1"/><line transform="translate(50,0)" x2="0" y2="5" stroke="#888" stroke-width="1" opacity="1"/><line transform="translate(100,0)" x2="0" y2="5" stroke="#888" stroke-width="1" opacity="1"/><line transform="translate(150,0)" x2="0" y2="5" stroke="#888" stroke-width="1" opacity="1"/><line transform="translate(200,0)" x2="0" y2="5" stroke="#888" stroke-width="1" opacity="1"/><line transform="translate(250,0)" x2="0" y2="5" stroke="#888" stroke-width="1" opacity="1"/><line transform="translate(300,0)" x2="0" y2="5" stroke="#888" stroke-width="1" opacity="1"/></g><g class="mark-text role-axis-label" pointer-events="none"><text text-anchor="start" transform="translate(0,15)" font-family="sans-serif" font-size="10px" fill="#000" opacity="1">−6</text><text text-anchor="middle" transform="translate(50,15)" font-family="sans-serif" font-size="10px" fill="#000" opacity="1">−4</text><text text-anchor="middle" transform="translate(100,15)" font-family="sans-serif" font-size="10px" fill="#000" opacity="1">−2</text><text text-anchor="middle" transform="translate(150,15)" font-family="sans-serif" font-size="10px" fill="#000" opacity="1">0</text><text text-anchor="middle" transform="translate(200,15)" font-family="sans-serif" font-size="10px" fill="#000" opacity="1">2</text><text text-anchor="middle" transform="translate(250,15)" font-family="sans-serif" font-size="10px" fill="#000" opacity="1">4</text><text text-anchor="end" transform="translate(300,15)" font-family="sans-serif" font-size="10px" fill="#000" opacity="1">6</text></g><g class="mark-rule role-axis-domain" pointer-events="none"><line transform="translate(0,0)" x2="300" y2="0" stroke="#888" stroke-width="1" opacity="1"/></g><g class="mark-text role-axis-title" pointer-events="none"><text text-anchor="middle" transform="translate(150,30)" font-family="sans-serif" font-size="11px" font-weight="bold" fill="#000" opacity="1">log10(error(error estimate))</text></g></g><path class="foreground" aria-hidden="true" d="" pointer-events="none" display="none"/></g></g><g class="mark-group role-axis" role="graphics-symbol" aria-roledescription="axis" aria-label="Y-axis titled 'density' for a linear scale with values from 0.0 to 2.0"><g transform="translate(0.5,0.5)"><path class="background" aria-hidden="true" d="M0,0h0v0h0Z" pointer-events="none"/><g><g class="mark-rule role-axis-tick" pointer-events="none"><line transform="translate(0,100)" x2="-5" y2="0" stroke="#888" stroke-width="1" opacity="1"/><line transform="translate(0,75)" x2="-5" y2="0" stroke="#888" stroke-width="1" opacity="1"/><line transform="translate(0,50)" x2="-5" y2="0" stroke="#888" stroke-width="1" opacity="1"/><line transform="translate(0,25)" x2="-5" y2="0" stroke="#888" stroke-width="1" opacity="1"/><line transform="translate(0,0)" x2="-5" y2="0" stroke="#888" stroke-width="1" opacity="1"/></g><g class="mark-text role-axis-label" pointer-events="none"><text text-anchor="end" transform="translate(-7,103)" font-family="sans-serif" font-size="10px" fill="#000" opacity="1">0.0</text><text text-anchor="end" transform="translate(-7,78)" font-family="sans-serif" font-size="10px" fill="#000" opacity="1">0.5</text><text text-anchor="end" transform="translate(-7,53)" font-family="sans-serif" font-size="10px" fill="#000" opacity="1">1.0</text><text text-anchor="end" transform="translate(-7,28)" font-family="sans-serif" font-size="10px" fill="#000" opacity="1">1.5</text><text text-anchor="end" transform="translate(-7,3)" font-family="sans-serif" font-size="10px" fill="#000" opacity="1">2.0</text></g><g class="mark-rule role-axis-domain" pointer-events="none"><line transform="translate(0,100)" x2="0" y2="-100" stroke="#888" stroke-width="1" opacity="1"/></g><g class="mark-text role-axis-title" pointer-events="none"><text text-anchor="middle" transform="translate(-24.9013671875,50) rotate(-90) translate(0,-2)" font-family="sans-serif" font-size="11px" font-weight="bold" fill="#000" opacity="1">density</text></g></g><path class="foreground" aria-hidden="true" d="" pointer-events="none" display="none"/></g></g><g class="mark-group role-scope concat_0_pathgroup" role="graphics-object" aria-roledescription="group mark container"><g transform="translate(0,0)"><path class="background" aria-hidden="true" d="M0,0h300v100h-300Z"/><g><g class="mark-line role-mark concat_0_marks" role="graphics-object" aria-roledescription="line mark container"><path aria-label="log10(error(error estimate)): −6; density: 3.30527848503e-7; Method: Linear model" role="graphics-symbol" aria-roledescription="line mark" d="M0,100L1.5,100L3,100L4.5,99.998L6,99.993L7.5,99.98L9,99.95L10.5,99.892L12,99.8L13.5,99.685L15,99.577L16.5,99.516L18,99.528L19.5,99.607L21,99.722L22.5,99.832L24,99.914L25.5,99.962L27,99.986L28.5,99.995L30,99.999L31.5,99.999L33,99.997L34.5,99.991L36,99.975L37.5,99.94L39,99.875L40.5,99.776L42,99.657L43.5,99.544L45,99.47L46.5,99.447L48,99.459L49.5,99.479L51,99.487L52.5,99.485L54,99.486L55.5,99.489L57,99.468L58.5,99.381L60,99.194L61.5,98.908L63,98.566L64.5,98.242L66,98.005L67.5,97.907L69,97.958L70.5,98.129L72,98.353L73.5,98.54L75,98.609L76.5,98.541L78,98.395L79.5,98.282L81,98.287L82.5,98.403L84,98.514L85.5,98.457L87,98.126L88.5,97.537L90,96.832L91.5,96.212L93,95.837L94.5,95.754L96,95.889L97.5,96.099L99,96.233L100.5,96.19L102,95.944L103.5,95.538L105,95.049L106.5,94.549L108,94.051L109.5,93.516L111,92.893L112.5,92.193L114,91.498L115.5,90.883L117,90.335L118.5,89.741L120,88.986L121.5,88.047L123,87.032L124.5,86.118L126,85.445L127.5,85.025L129,84.741L130.5,84.437L132,84.027L133.5,83.528L135,82.992L136.5,82.44L138,81.849L139.5,81.22L141,80.606L142.5,80.072L144,79.652L145.5,79.354L147,79.228L148.5,79.385L150,79.938L151.5,80.914L153,82.212L154.5,83.646L156,85.016L157.5,86.18L159,87.076L160.5,87.726L162,88.194L163.5,88.535L165,88.765L166.5,88.881L168,88.911L169.5,88.954L171,89.165L172.5,89.681L174,90.532L175.5,91.623L177,92.785L178.5,93.87L180,94.801L181.5,95.552L183,96.101L184.5,96.422L186,96.515L187.5,96.446L189,96.34L190.5,96.324L192,96.456L193.5,96.688L195,96.911L196.5,97.027L198,97.019L199.5,96.956L201,96.951L202.5,97.088L204,97.383L205.5,97.786L207,98.233L208.5,98.67L210,99.061L211.5,99.386L213,99.633L214.5,99.802L216,99.904L217.5,99.959L219,99.985L220.5,99.995L222,99.999L223.5,100L225,100L226.5,100L228,100L229.5,99.999L231,99.998L232.5,99.992L234,99.975L235.5,99.935L237,99.855L238.5,99.716L240,99.517L241.5,99.276L243,99.029L244.5,98.818L246,98.666L247.5,98.574L249,98.528L250.5,98.512L252,98.518L253.5,98.549L255,98.619L256.5,98.744L258,98.93L259.5,99.164L261,99.41L262.5,99.622L264,99.768L265.5,99.837L267,99.836L268.5,99.786L270,99.712L271.5,99.637L273,99.577L274.5,99.537L276,99.515L277.5,99.504L279,99.498L280.5,99.496L282,99.496L283.5,99.504L285,99.527L286.5,99.572L288,99.64L289.5,99.722L291,99.8L292.5,99.858L294,99.885L295.5,99.888L297,99.879L298.5,99.874L300,99.884" stroke="#4c78a8" stroke-width="2" stroke-dasharray="1,0"/></g></g><path class="foreground" aria-hidden="true" d="" display="none"/></g><g transform="translate(0,0)"><path class="background" aria-hidden="true" d="M0,0h300v100h-300Z"/><g><g class="mark-line role-mark concat_0_marks" role="graphics-object" aria-roledescription="line mark container"><path aria-label="log10(error(error estimate)): −6; density: 6.26465526559e-283; Method: Simple simulation" role="graphics-symbol" aria-roledescription="line mark" d="M0,100L1.5,100L3,100L4.5,100L6,100L7.5,100L9,100L10.5,100L12,100L13.5,100L15,100L16.5,100L18,100L19.5,100L21,100L22.5,100L24,100L25.5,100L27,100L28.5,100L30,100L31.5,100L33,100L34.5,100L36,100L37.5,100L39,100L40.5,100L42,100L43.5,100L45,100L46.5,100L48,100L49.5,100L51,100L52.5,100L54,100L55.5,100L57,100L58.5,100L60,100L61.5,100L63,100L64.5,100L66,100L67.5,100L69,100L70.5,100L72,100L73.5,100L75,100L76.5,100L78,100L79.5,100L81,100L82.5,100L84,100L85.5,100L87,100L88.5,100L90,100L91.5,100L93,100L94.5,100L96,100L97.5,100L99,100L100.5,100L102,100L103.5,100L105,100L106.5,100L108,100L109.5,100L111,100L112.5,100L114,100L115.5,100L117,100L118.5,100L120,100L121.5,99.999L123,99.996L124.5,99.985L126,99.951L127.5,99.857L129,99.628L130.5,99.124L132,98.117L133.5,96.266L135,93.125L136.5,88.202L138,81.105L139.5,71.719L141,60.283L142.5,47.293L144,33.442L145.5,19.928L147,9.008L148.5,3.933L150,7.537L151.5,20.154L153,38.771L154.5,58.47L156,75.013L157.5,86.521L159,93.339L160.5,96.868L162,98.513L163.5,99.234L165,99.558L166.5,99.727L168,99.833L169.5,99.906L171,99.953L172.5,99.98L174,99.992L175.5,99.998L177,99.999L178.5,100L180,100L181.5,100L183,100L184.5,100L186,100L187.5,100L189,100L190.5,100L192,100L193.5,100L195,100L196.5,100L198,100L199.5,100L201,100L202.5,100L204,100L205.5,100L207,100L208.5,100L210,100L211.5,100L213,100L214.5,100L216,100L217.5,100L219,99.999L220.5,99.997L222,99.988L223.5,99.963L225,99.902L226.5,99.778L228,99.571L229.5,99.294L231,99.009L232.5,98.815L234,98.792L235.5,98.951L237,99.224L238.5,99.51L240,99.737L241.5,99.879L243,99.953L244.5,99.984L246,99.996L247.5,99.999L249,100L250.5,100L252,100L253.5,100L255,100L256.5,100L258,100L259.5,100L261,100L262.5,100L264,100L265.5,100L267,100L268.5,100L270,100L271.5,100L273,100L274.5,100L276,100L277.5,100L279,100L280.5,100L282,100L283.5,100L285,100L286.5,100L288,100L289.5,100L291,100L292.5,100L294,100L295.5,100L297,100L298.5,100L300,100" stroke="#f58518" stroke-width="2" stroke-dasharray="4,2"/></g></g><path class="foreground" aria-hidden="true" d="" display="none"/></g><g transform="translate(0,0)"><path class="background" aria-hidden="true" d="M0,0h300v100h-300Z"/><g><g class="mark-line role-mark concat_0_marks" role="graphics-object" aria-roledescription="line mark container"><path aria-label="log10(error(error estimate)): −6; density: 0.00463830221586; Method: Static formula" role="graphics-symbol" aria-roledescription="line mark" d="M0,99.768L1.5,99.826L3,99.862L4.5,99.875L6,99.873L7.5,99.871L9,99.88L10.5,99.903L12,99.93L13.5,99.95L15,99.954L16.5,99.936L18,99.894L19.5,99.836L21,99.773L22.5,99.717L24,99.659L25.5,99.553L27,99.303L28.5,98.77L30,97.815L31.5,96.383L33,94.618L34.5,92.903L36,91.743L37.5,91.515L39,92.242L40.5,93.573L42,94.992L43.5,96.087L45,96.695L46.5,96.867L48,96.757L49.5,96.534L51,96.351L52.5,96.32L54,96.481L55.5,96.795L57,97.178L58.5,97.555L60,97.872L61.5,98.081L63,98.128L64.5,97.981L66,97.657L67.5,97.2L69,96.604L70.5,95.77L72,94.549L73.5,92.89L75,90.978L76.5,89.245L78,88.182L79.5,88.081L81,88.889L82.5,90.269L84,91.797L85.5,93.14L87,94.132L88.5,94.771L90,95.157L91.5,95.414L93,95.644L94.5,95.897L96,96.176L97.5,96.439L99,96.629L100.5,96.722L102,96.758L103.5,96.819L105,96.96L106.5,97.161L108,97.339L109.5,97.41L111,97.351L112.5,97.212L114,97.071L115.5,96.961L117,96.834L118.5,96.603L120,96.22L121.5,95.722L123,95.209L124.5,94.778L126,94.487L127.5,94.373L129,94.456L130.5,94.74L132,95.181L133.5,95.681L135,96.107L136.5,96.309L138,96.171L139.5,95.661L141,94.865L142.5,93.948L144,93.056L145.5,92.219L147,91.341L148.5,90.292L150,89.042L151.5,87.744L153,86.708L154.5,86.295L156,86.758L157.5,88.105L159,90.062L160.5,92.173L162,93.998L163.5,95.282L165,95.998L166.5,96.266L168,96.256L169.5,96.121L171,95.997L172.5,95.994L174,96.171L175.5,96.48L177,96.765L178.5,96.838L180,96.579L181.5,96.019L183,95.323L184.5,94.715L186,94.382L187.5,94.426L189,94.846L190.5,95.543L192,96.341L193.5,97.038L195,97.469L196.5,97.554L198,97.299L199.5,96.78L201,96.123L202.5,95.491L204,95.042L205.5,94.869L207,94.953L208.5,95.177L210,95.389L211.5,95.47L213,95.373L214.5,95.134L216,94.869L217.5,94.735L219,94.861L220.5,95.272L222,95.869L223.5,96.486L225,96.982L226.5,97.285L228,97.377L229.5,97.255L231,96.95L232.5,96.566L234,96.288L235.5,96.292L237,96.624L238.5,97.155L240,97.654L241.5,97.914L243,97.844L244.5,97.49L246,97L247.5,96.538L249,96.219L250.5,96.088L252,96.143L253.5,96.373L255,96.739L256.5,97.145L258,97.454L259.5,97.572L261,97.53L262.5,97.471L264,97.544L265.5,97.792L267,98.134L268.5,98.433L270,98.589L271.5,98.58L273,98.435L274.5,98.185L276,97.852L277.5,97.457L279,97.036L280.5,96.622L282,96.232L283.5,95.878L285,95.608L286.5,95.53L288,95.759L289.5,96.333L291,97.161L292.5,98.056L294,98.833L295.5,99.389L297,99.723L298.5,99.891L300,99.963" stroke="#e45756" stroke-width="2" stroke-dasharray="2,1"/></g></g><path class="foreground" aria-hidden="true" d="" display="none"/></g></g><g class="mark-group role-title"><g transform="translate(150,-22)"><path class="background" aria-hidden="true" d="M0,0h0v0h0Z" pointer-events="none"/><g><g class="mark-text role-title-text" role="graphics-symbol" aria-roledescription="title" aria-label="Title text 'fixed'" pointer-events="none"><text text-anchor="middle" transform="translate(0,10)" font-family="sans-serif" font-size="13px" font-weight="bold" fill="#000" opacity="1">fixed</text></g></g><path class="foreground" aria-hidden="true" d="" pointer-events="none" display="none"/></g></g></g><path class="foreground" aria-hidden="true" d="" display="none"/></g></g><g class="mark-group role-scope concat_1_group" role="graphics-object" aria-roledescription="group mark container"><g transform="translate(0,171)"><path class="background" aria-hidden="true" d="M0.5,0.5h300v100h-300Z" stroke="#ddd"/><g><g class="mark-group role-axis" aria-hidden="true"><g transform="translate(0.5,100.5)"><path class="background" aria-hidden="true" d="M0,0h0v0h0Z" pointer-events="none"/><g><g class="mark-rule role-axis-grid" pointer-events="none"><line transform="translate(0,-100)" x2="0" y2="100" stroke="#ddd" stroke-width="1" opacity="1"/><line transform="translate(30,-100)" x2="0" y2="100" stroke="#ddd" stroke-width="1" opacity="1"/><line transform="translate(60,-100)" x2="0" y2="100" stroke="#ddd" stroke-width="1" opacity="1"/><line transform="translate(90,-100)" x2="0" y2="100" stroke="#ddd" stroke-width="1" opacity="1"/><line transform="translate(120,-100)" x2="0" y2="100" stroke="#ddd" stroke-width="1" opacity="1"/><line transform="translate(150,-100)" x2="0" y2="100" stroke="#ddd" stroke-width="1" opacity="1"/><line transform="translate(180,-100)" x2="0" y2="100" stroke="#ddd" stroke-width="1" opacity="1"/><line transform="translate(210,-100)" x2="0" y2="100" stroke="#ddd" stroke-width="1" opacity="1"/><line transform="translate(240,-100)" x2="0" y2="100" stroke="#ddd" stroke-width="1" opacity="1"/><line transform="translate(270,-100)" x2="0" y2="100" stroke="#ddd" stroke-width="1" opacity="1"/><line transform="translate(300,-100)" x2="0" y2="100" stroke="#ddd" stroke-width="1" opacity="1"/></g></g><path class="foreground" aria-hidden="true" d="" pointer-events="none" display="none"/></g></g><g class="mark-group role-axis" aria-hidden="true"><g transform="translate(0.5,0.5)"><path class="background" aria-hidden="true" d="M0,0h0v0h0Z" pointer-events="none"/><g><g class="mark-rule role-axis-grid" pointer-events="none"><line transform="translate(0,100)" x2="300" y2="0" stroke="#ddd" stroke-width="1" opacity="1"/><line transform="translate(0,62)" x2="300" y2="0" stroke="#ddd" stroke-width="1" opacity="1"/><line transform="translate(0,23)" x2="300" y2="0" stroke="#ddd" stroke-width="1" opacity="1"/></g></g><path class="foreground" aria-hidden="true" d="" pointer-events="none" display="none"/></g></g><g class="mark-group role-axis" role="graphics-symbol" aria-roledescription="axis" aria-label="X-axis titled 'log10(error(error estimate))' for a linear scale with values from −3 to 3"><g transform="translate(0.5,100.5)"><path class="background" aria-hidden="true" d="M0,0h0v0h0Z" pointer-events="none"/><g><g class="mark-rule role-axis-tick" pointer-events="none"><line transform="translate(0,0)" x2="0" y2="5" stroke="#888" stroke-width="1" opacity="1"/><line transform="translate(30,0)" x2="0" y2="5" stroke="#888" stroke-width="1" opacity="1"/><line transform="translate(60,0)" x2="0" y2="5" stroke="#888" stroke-width="1" opacity="1"/><line transform="translate(90,0)" x2="0" y2="5" stroke="#888" stroke-width="1" opacity="1"/><line transform="translate(120,0)" x2="0" y2="5" stroke="#888" stroke-width="1" opacity="1"/><line transform="translate(150,0)" x2="0" y2="5" stroke="#888" stroke-width="1" opacity="1"/><line transform="translate(180,0)" x2="0" y2="5" stroke="#888" stroke-width="1" opacity="1"/><line transform="translate(210,0)" x2="0" y2="5" stroke="#888" stroke-width="1" opacity="1"/><line transform="translate(240,0)" x2="0" y2="5" stroke="#888" stroke-width="1" opacity="1"/><line transform="translate(270,0)" x2="0" y2="5" stroke="#888" stroke-width="1" opacity="1"/><line transform="translate(300,0)" x2="0" y2="5" stroke="#888" stroke-width="1" opacity="1"/></g><g class="mark-text role-axis-label" pointer-events="none"><text text-anchor="start" transform="translate(0,15)" font-family="sans-serif" font-size="10px" fill="#000" opacity="1">−2.5</text><text text-anchor="middle" transform="translate(30,15)" font-family="sans-serif" font-size="10px" fill="#000" opacity="1">−2.0</text><text text-anchor="middle" transform="translate(60,15)" font-family="sans-serif" font-size="10px" fill="#000" opacity="1">−1.5</text><text text-anchor="middle" transform="translate(90,15)" font-family="sans-serif" font-size="10px" fill="#000" opacity="1">−1.0</text><text text-anchor="middle" transform="translate(120,15)" font-family="sans-serif" font-size="10px" fill="#000" opacity="1">−0.5</text><text text-anchor="middle" transform="translate(150,15)" font-family="sans-serif" font-size="10px" fill="#000" opacity="1">0.0</text><text text-anchor="middle" transform="translate(180,15)" font-family="sans-serif" font-size="10px" fill="#000" opacity="1">0.5</text><text text-anchor="middle" transform="translate(210,15)" font-family="sans-serif" font-size="10px" fill="#000" opacity="1">1.0</text><text text-anchor="middle" transform="translate(240,15)" font-family="sans-serif" font-size="10px" fill="#000" opacity="1">1.5</text><text text-anchor="middle" transform="translate(270,15)" font-family="sans-serif" font-size="10px" fill="#000" opacity="1">2.0</text><text text-anchor="end" transform="translate(300,15)" font-family="sans-serif" font-size="10px" fill="#000" opacity="1">2.5</text></g><g class="mark-rule role-axis-domain" pointer-events="none"><line transform="translate(0,0)" x2="300" y2="0" stroke="#888" stroke-width="1" opacity="1"/></g><g class="mark-text role-axis-title" pointer-events="none"><text text-anchor="middle" transform="translate(150,30)" font-family="sans-serif" font-size="11px" font-weight="bold" fill="#000" opacity="1">log10(error(error estimate))</text></g></g><path class="foreground" aria-hidden="true" d="" pointer-events="none" display="none"/></g></g><g class="mark-group role-axis" role="graphics-symbol" aria-roledescription="axis" aria-label="Y-axis titled 'density' for a linear scale with values from 0.0 to 1.3"><g transform="translate(0.5,0.5)"><path class="background" aria-hidden="true" d="M0,0h0v0h0Z" pointer-events="none"/><g><g class="mark-rule role-axis-tick" pointer-events="none"><line transform="translate(0,100)" x2="-5" y2="0" stroke="#888" stroke-width="1" opacity="1"/><line transform="translate(0,62)" x2="-5" y2="0" stroke="#888" stroke-width="1" opacity="1"/><line transform="translate(0,23)" x2="-5" y2="0" stroke="#888" stroke-width="1" opacity="1"/></g><g class="mark-text role-axis-label" pointer-events="none"><text text-anchor="end" transform="translate(-7,103)" font-family="sans-serif" font-size="10px" fill="#000" opacity="1">0.0</text><text text-anchor="end" transform="translate(-7,64.53846153846155)" font-family="sans-serif" font-size="10px" fill="#000" opacity="1">0.5</text><text text-anchor="end" transform="translate(-7,26.076923076923084)" font-family="sans-serif" font-size="10px" fill="#000" opacity="1">1.0</text></g><g class="mark-rule role-axis-domain" pointer-events="none"><line transform="translate(0,100)" x2="0" y2="-100" stroke="#888" stroke-width="1" opacity="1"/></g><g class="mark-text role-axis-title" pointer-events="none"><text text-anchor="middle" transform="translate(-24.9013671875,50) rotate(-90) translate(0,-2)" font-family="sans-serif" font-size="11px" font-weight="bold" fill="#000" opacity="1">density</text></g></g><path class="foreground" aria-hidden="true" d="" pointer-events="none" display="none"/></g></g><g class="mark-group role-scope concat_1_pathgroup" role="graphics-object" aria-roledescription="group mark container"><g transform="translate(0,0)"><path class="background" aria-hidden="true" d="M0,0h300v100h-300Z"/><g><g class="mark-line role-mark concat_1_marks" role="graphics-object" aria-roledescription="line mark container"><path aria-label="log10(error(error estimate)): −2.5; density: 1.92942109235e-27; Method: Linear model" role="graphics-symbol" aria-roledescription="line mark" d="M0,100L1.5,100L3,100L4.5,100L6,100L7.5,100L9,100L10.5,100L12,100L13.5,100L15,100L16.5,100L18,100L19.5,100L21,100L22.5,100L24,100L25.5,100L27,100L28.5,100L30,100L31.5,100L33,100L34.5,100L36,100L37.5,100L39,100L40.5,100L42,100L43.5,100L45,100L46.5,100L48,100L49.5,100L51,100L52.5,100L54,100L55.5,100L57,100L58.5,100L60,99.999L61.5,99.999L63,99.997L64.5,99.995L66,99.99L67.5,99.982L69,99.969L70.5,99.946L72,99.91L73.5,99.854L75,99.769L76.5,99.642L78,99.46L79.5,99.204L81,98.855L82.5,98.391L84,97.792L85.5,97.039L87,96.118L88.5,95.025L90,93.763L91.5,92.349L93,90.816L94.5,89.207L96,87.578L97.5,85.995L99,84.525L100.5,83.233L102,82.176L103.5,81.393L105,80.906L106.5,80.709L108,80.773L109.5,81.045L111,81.453L112.5,81.913L114,82.335L115.5,82.635L117,82.735L118.5,82.574L120,82.107L121.5,81.306L123,80.155L124.5,78.653L126,76.804L127.5,74.615L129,72.099L130.5,69.273L132,66.157L133.5,62.779L135,59.177L136.5,55.398L138,51.496L139.5,47.531L141,43.569L142.5,39.673L144,35.906L145.5,32.326L147,28.989L148.5,25.949L150,23.258L151.5,20.967L153,19.124L154.5,17.773L156,16.949L157.5,16.674L159,16.956L160.5,17.784L162,19.131L163.5,20.95L165,23.185L166.5,25.769L168,28.63L169.5,31.698L171,34.909L172.5,38.203L174,41.535L175.5,44.867L177,48.177L178.5,51.448L180,54.672L181.5,57.848L183,60.975L184.5,64.051L186,67.073L187.5,70.035L189,72.924L190.5,75.728L192,78.427L193.5,81.003L195,83.438L196.5,85.714L198,87.817L199.5,89.735L201,91.46L202.5,92.99L204,94.327L205.5,95.476L207,96.447L208.5,97.254L210,97.913L211.5,98.441L213,98.856L214.5,99.176L216,99.417L217.5,99.596L219,99.726L220.5,99.817L222,99.881L223.5,99.924L225,99.952L226.5,99.971L228,99.983L229.5,99.99L231,99.994L232.5,99.997L234,99.998L235.5,99.999L237,100L238.5,100L240,100L241.5,100L243,100L244.5,100L246,100L247.5,99.999L249,99.999L250.5,99.997L252,99.995L253.5,99.992L255,99.986L256.5,99.977L258,99.963L259.5,99.942L261,99.912L262.5,99.868L264,99.809L265.5,99.731L267,99.631L268.5,99.508L270,99.361L271.5,99.194L273,99.01L274.5,98.818L276,98.627L277.5,98.448L279,98.294L280.5,98.175L282,98.102L283.5,98.079L285,98.109L286.5,98.189L288,98.314L289.5,98.472L291,98.653L292.5,98.845L294,99.037L295.5,99.219L297,99.383L298.5,99.527L300,99.646" stroke="#4c78a8" stroke-width="2" stroke-dasharray="1,0"/></g></g><path class="foreground" aria-hidden="true" d="" display="none"/></g><g transform="translate(0,0)"><path class="background" aria-hidden="true" d="M0,0h300v100h-300Z"/><g><g class="mark-line role-mark concat_1_marks" role="graphics-object" aria-roledescription="line mark container"><path aria-label="log10(error(error estimate)): −2.5; density: 6.1972563992e-46; Method: Simple simulation" role="graphics-symbol" aria-roledescription="line mark" d="M0,100L1.5,100L3,100L4.5,100L6,100L7.5,100L9,100L10.5,100L12,100L13.5,100L15,100L16.5,100L18,100L19.5,100L21,100L22.5,100L24,100L25.5,100L27,100L28.5,100L30,100L31.5,100L33,100L34.5,100L36,100L37.5,100L39,100L40.5,100L42,100L43.5,100L45,100L46.5,100L48,100L49.5,100L51,100L52.5,100L54,100L55.5,100L57,100L58.5,100L60,100L61.5,100L63,100L64.5,100L66,100L67.5,100L69,100L70.5,100L72,100L73.5,100L75,100L76.5,100L78,100L79.5,100L81,100L82.5,100L84,100L85.5,100L87,100L88.5,100L90,99.999L91.5,99.999L93,99.998L94.5,99.996L96,99.992L97.5,99.986L99,99.975L100.5,99.958L102,99.929L103.5,99.885L105,99.818L106.5,99.718L108,99.573L109.5,99.367L111,99.082L112.5,98.694L114,98.176L115.5,97.496L117,96.617L118.5,95.492L120,94.071L121.5,92.294L123,90.093L124.5,87.397L126,84.129L127.5,80.223L129,75.625L130.5,70.307L132,64.282L133.5,57.612L135,50.421L136.5,42.897L138,35.287L139.5,27.889L141,21.031L142.5,15.042L144,10.227L145.5,6.835L147,5.033L148.5,4.892L150,6.373L151.5,9.339L153,13.565L154.5,18.759L156,24.599L157.5,30.75L159,36.902L160.5,42.781L162,48.172L163.5,52.92L165,56.932L166.5,60.173L168,62.656L169.5,64.429L171,65.566L172.5,66.158L174,66.298L175.5,66.078L177,65.583L178.5,64.889L180,64.059L181.5,63.146L183,62.2L184.5,61.262L186,60.377L187.5,59.59L189,58.949L190.5,58.5L192,58.29L193.5,58.357L195,58.728L196.5,59.413L198,60.408L199.5,61.692L201,63.227L202.5,64.968L204,66.862L205.5,68.856L207,70.896L208.5,72.935L210,74.932L211.5,76.85L213,78.665L214.5,80.357L216,81.919L217.5,83.35L219,84.661L220.5,85.868L222,86.993L223.5,88.059L225,89.088L226.5,90.097L228,91.097L229.5,92.089L231,93.069L232.5,94.024L234,94.939L235.5,95.796L237,96.579L238.5,97.276L240,97.879L241.5,98.387L243,98.802L244.5,99.132L246,99.387L247.5,99.577L249,99.716L250.5,99.814L252,99.882L253.5,99.926L255,99.955L256.5,99.974L258,99.985L259.5,99.992L261,99.995L262.5,99.998L264,99.999L265.5,99.999L267,100L268.5,100L270,100L271.5,100L273,100L274.5,100L276,100L277.5,100L279,100L280.5,100L282,100L283.5,100L285,100L286.5,100L288,100L289.5,100L291,100L292.5,100L294,100L295.5,100L297,100L298.5,100L300,100" stroke="#f58518" stroke-width="2" stroke-dasharray="4,2"/></g></g><path class="foreground" aria-hidden="true" d="" display="none"/></g><g transform="translate(0,0)"><path class="background" aria-hidden="true" d="M0,0h300v100h-300Z"/><g><g class="mark-line role-mark concat_1_marks" role="graphics-object" aria-roledescription="line mark container"><path aria-label="log10(error(error estimate)): −2.5; density: 1.45409778579e-93; Method: Static formula" role="graphics-symbol" aria-roledescription="line mark" d="M0,100L1.5,100L3,100L4.5,100L6,100L7.5,100L9,100L10.5,100L12,100L13.5,100L15,100L16.5,100L18,100L19.5,100L21,100L22.5,100L24,100L25.5,100L27,100L28.5,100L30,100L31.5,100L33,100L34.5,100L36,100L37.5,100L39,100L40.5,100L42,100L43.5,100L45,100L46.5,100L48,100L49.5,100L51,100L52.5,100L54,100L55.5,100L57,100L58.5,100L60,100L61.5,100L63,100L64.5,100L66,100L67.5,100L69,100L70.5,100L72,100L73.5,100L75,100L76.5,100L78,100L79.5,100L81,100L82.5,100L84,100L85.5,100L87,100L88.5,100L90,100L91.5,100L93,100L94.5,100L96,100L97.5,100L99,100L100.5,100L102,100L103.5,100L105,100L106.5,100L108,100L109.5,100L111,100L112.5,100L114,100L115.5,100L117,100L118.5,100L120,100L121.5,100L123,100L124.5,100L126,100L127.5,100L129,100L130.5,100L132,100L133.5,100L135,100L136.5,100L138,100L139.5,100L141,100L142.5,100L144,100L145.5,100L147,99.999L148.5,99.998L150,99.996L151.5,99.993L153,99.987L154.5,99.976L156,99.958L157.5,99.928L159,99.879L160.5,99.802L162,99.685L163.5,99.512L165,99.264L166.5,98.919L168,98.454L169.5,97.845L171,97.072L172.5,96.124L174,94.996L175.5,93.701L177,92.264L178.5,90.727L180,89.148L181.5,87.593L183,86.133L184.5,84.837L186,83.765L187.5,82.961L189,82.449L190.5,82.229L192,82.279L193.5,82.557L195,83.003L196.5,83.544L198,84.1L199.5,84.592L201,84.942L202.5,85.084L204,84.962L205.5,84.54L207,83.801L208.5,82.747L210,81.4L211.5,79.8L213,77.998L214.5,76.057L216,74.042L217.5,72.023L219,70.07L220.5,68.253L222,66.641L223.5,65.305L225,64.308L226.5,63.708L228,63.55L229.5,63.856L231,64.624L232.5,65.82L234,67.374L235.5,69.186L237,71.128L238.5,73.052L240,74.803L241.5,76.224L243,77.172L244.5,77.522L246,77.182L247.5,76.089L249,74.222L250.5,71.599L252,68.277L253.5,64.353L255,59.955L256.5,55.235L258,50.362L259.5,45.509L261,40.839L262.5,36.499L264,32.609L265.5,29.26L267,26.51L268.5,24.389L270,22.903L271.5,22.04L273,21.779L274.5,22.094L276,22.96L277.5,24.356L279,26.267L280.5,28.68L282,31.583L283.5,34.961L285,38.791L286.5,43.032L288,47.627L289.5,52.498L291,57.545L292.5,62.655L294,67.705L295.5,72.574L297,77.15L298.5,81.339L300,85.074" stroke="#e45756" stroke-width="2" stroke-dasharray="2,1"/></g></g><path class="foreground" aria-hidden="true" d="" display="none"/></g></g><g class="mark-group role-title"><g transform="translate(150,-17)"><path class="background" aria-hidden="true" d="M0,0h0v0h0Z" pointer-events="none"/><g><g class="mark-text role-title-text" role="graphics-symbol" aria-roledescription="title" aria-label="Title text 'float'" pointer-events="none"><text text-anchor="middle" transform="translate(0,10)" font-family="sans-serif" font-size="13px" font-weight="bold" fill="#000" opacity="1">float</text></g></g><path class="foreground" aria-hidden="true" d="" pointer-events="none" display="none"/></g></g></g><path class="foreground" aria-hidden="true" d="" display="none"/></g></g><g class="mark-group role-legend" role="graphics-symbol" aria-roledescription="legend" aria-label="Symbol legend titled 'Method' for stroke color and strokeDash with 3 values: Linear model, Simple simulation, Static formula"><g transform="translate(18,18)"><path class="background" aria-hidden="true" d="M0,0h95v53h-95Z" pointer-events="none"/><g><g class="mark-group role-legend-entry"><g transform="translate(0,16)"><path class="background" aria-hidden="true" d="M0,0h0v0h0Z" pointer-events="none"/><g><g class="mark-group role-scope" role="graphics-object" aria-roledescription="group mark container"><g transform="translate(0,0)"><path class="background" aria-hidden="true" d="M0,0h94.3642578125v11h-94.3642578125Z" pointer-events="none" opacity="1"/><g><g class="mark-symbol role-legend-symbol" pointer-events="none"><path transform="translate(6,6)" d="M-5,0L5,0" stroke="#4c78a8" stroke-width="1.5" stroke-dasharray="1,0" opacity="1"/></g><g class="mark-text role-legend-label" pointer-events="none"><text text-anchor="start" transform="translate(16,9)" font-family="sans-serif" font-size="10px" fill="#000" opacity="1">Linear model</text></g></g><path class="foreground" aria-hidden="true" d="" pointer-events="none" display="none"/></g><g transform="translate(0,13)"><path class="background" aria-hidden="true" d="M0,0h94.3642578125v11h-94.3642578125Z" pointer-events="none" opacity="1"/><g><g class="mark-symbol role-legend-symbol" pointer-events="none"><path transform="translate(6,6)" d="M-5,0L5,0" stroke="#f58518" stroke-width="1.5" stroke-dasharray="4,2" opacity="1"/></g><g class="mark-text role-legend-label" pointer-events="none"><text text-anchor="start" transform="translate(16,9)" font-family="sans-serif" font-size="10px" fill="#000" opacity="1">Simple simulation</text></g></g><path class="foreground" aria-hidden="true" d="" pointer-events="none" display="none"/></g><g transform="translate(0,26)"><path class="background" aria-hidden="true" d="M0,0h94.3642578125v11h-94.3642578125Z" pointer-events="none" opacity="1"/><g><g class="mark-symbol role-legend-symbol" pointer-events="none"><path transform="translate(6,6)" d="M-5,0L5,0" stroke="#e45756" stroke-width="1.5" stroke-dasharray="2,1" opacity="1"/></g><g class="mark-text role-legend-label" pointer-events="none"><text text-anchor="start" transform="translate(16,9)" font-family="sans-serif" font-size="10px" fill="#000" opacity="1">Static formula</text></g></g><path class="foreground" aria-hidden="true" d="" pointer-events="none" display="none"/></g></g></g><path class="foreground" aria-hidden="true" d="" pointer-events="none" display="none"/></g></g><g class="mark-text role-legend-title" pointer-events="none"><text text-anchor="start" transform="translate(0,9)" font-family="sans-serif" font-size="11px" font-weight="bold" fill="#000" opacity="1">Method</text></g></g><path class="foreground" aria-hidden="true" d="" pointer-events="none" display="none"/></g></g></g><path class="foreground" aria-hidden="true" d="" display="none"/></g></g></g></svg>